<svg width="1168" height="53" viewBox="0 0 1168 53" fill="none" xmlns="http://www.w3.org/2000/svg">
<path d="M22.6777 11.3174C17.8698 11.4997 14.0645 12.9238 11.2617 15.5898C8.48177 18.2331 7.0918 21.7536 7.0918 26.1514C7.0918 30.5947 8.48177 34.1494 11.2617 36.8154C14.0645 39.4587 17.8698 40.86 22.6777 41.0195V11.3174ZM44.3135 26.1855C44.3135 21.765 42.9235 18.2217 40.1436 15.5557C37.3636 12.8896 33.5697 11.4769 28.7617 11.3174V41.0195C33.5697 40.8372 37.3636 39.4131 40.1436 36.7471C42.9235 34.1038 44.3135 30.5833 44.3135 26.1855ZM22.6777 46.5225C16.0013 46.363 10.6921 44.4489 6.75 40.7803C2.83073 37.1117 0.871094 32.2354 0.871094 26.1514C0.871094 20.0902 2.83073 15.2367 6.75 11.5908C10.6693 7.9222 15.9785 5.99674 22.6777 5.81445V0.995117H28.7617V5.81445C35.4382 5.97396 40.736 7.88802 44.6553 11.5566C48.5745 15.2253 50.5342 20.1016 50.5342 26.1855C50.5342 32.2467 48.5745 37.1003 44.6553 40.7461C40.736 44.4147 35.4382 46.3402 28.7617 46.5225V51.6836H22.6777V46.5225ZM114.416 0.858398C121.411 0.858398 126.949 3.14844 131.027 7.72852C135.106 12.3086 137.146 18.5179 137.146 26.3564C137.146 34.195 135.106 40.3929 131.027 44.9502C126.949 49.5303 121.411 51.8203 114.416 51.8203C107.421 51.8203 101.883 49.5303 97.8047 44.9502C93.7259 40.3929 91.6865 34.195 91.6865 26.3564C91.6865 18.5179 93.7259 12.3086 97.8047 7.72852C101.883 3.14844 107.421 0.858398 114.416 0.858398ZM114.416 6.53223C109.38 6.53223 105.381 8.30957 102.419 11.8643C99.4795 15.4417 98.0098 20.2725 98.0098 26.3564C98.0098 32.4176 99.4795 37.237 102.419 40.8145C105.381 44.3691 109.38 46.1465 114.416 46.1465C119.452 46.1465 123.451 44.3691 126.413 40.8145C129.353 37.237 130.822 32.4176 130.822 26.3564C130.822 20.2725 129.353 15.4417 126.413 11.8643C123.451 8.30957 119.452 6.53223 114.416 6.53223ZM189.201 51V7.21582H173.308V1.67871H211.247V7.21582H195.354V51H189.201ZM270.139 0.858398C277.134 0.858398 282.671 3.14844 286.75 7.72852C290.829 12.3086 292.868 18.5179 292.868 26.3564C292.868 34.195 290.829 40.3929 286.75 44.9502C282.671 49.5303 277.134 51.8203 270.139 51.8203C263.143 51.8203 257.606 49.5303 253.527 44.9502C249.449 40.3929 247.409 34.195 247.409 26.3564C247.409 18.5179 249.449 12.3086 253.527 7.72852C257.606 3.14844 263.143 0.858398 270.139 0.858398ZM270.139 6.53223C265.103 6.53223 261.104 8.30957 258.142 11.8643C255.202 15.4417 253.732 20.2725 253.732 26.3564C253.732 32.4176 255.202 37.237 258.142 40.8145C261.104 44.3691 265.103 46.1465 270.139 46.1465C275.174 46.1465 279.174 44.3691 282.136 40.8145C285.075 37.237 286.545 32.4176 286.545 26.3564C286.545 20.2725 285.075 15.4417 282.136 11.8643C279.174 8.30957 275.174 6.53223 270.139 6.53223ZM344.445 23.0752H351.11C354.118 23.0752 356.579 22.2549 358.493 20.6143C360.407 18.9508 361.364 16.8317 361.364 14.2568C361.364 11.7048 360.487 9.68815 358.732 8.20703C356.978 6.72591 354.585 5.98535 351.555 5.98535C348.501 5.98535 346.04 6.72591 344.172 8.20703C342.281 9.68815 341.21 11.7275 340.959 14.3252H334.978C335.297 10.0413 336.949 6.66895 339.934 4.20801C342.941 1.74707 346.895 0.516602 351.794 0.516602C356.397 0.516602 360.191 1.75846 363.176 4.24219C366.138 6.70312 367.619 9.85905 367.619 13.71C367.619 16.4443 366.776 18.8711 365.09 20.9902C363.381 23.1094 361.171 24.4993 358.459 25.1602V25.4336C361.74 25.8665 364.326 27.1768 366.218 29.3643C368.109 31.5745 369.055 34.3545 369.055 37.7041C369.055 41.7601 367.38 45.1895 364.03 47.9922C360.681 50.7721 356.568 52.1621 351.691 52.1621C346.496 52.1621 342.246 50.8747 338.942 48.2998C335.638 45.7477 333.872 42.3639 333.645 38.1484H339.592C339.865 40.7461 341.096 42.8197 343.283 44.3691C345.448 45.9186 348.228 46.6934 351.623 46.6934C354.927 46.6934 357.604 45.8503 359.655 44.1641C361.706 42.4551 362.731 40.2448 362.731 37.5332C362.731 34.7077 361.729 32.5088 359.724 30.9365C357.718 29.3415 354.938 28.5439 351.384 28.5439H344.445V23.0752ZM432.561 0.858398C439.556 0.858398 445.093 3.14844 449.172 7.72852C453.251 12.3086 455.29 18.5179 455.29 26.3564C455.29 34.195 453.251 40.3929 449.172 44.9502C445.093 49.5303 439.556 51.8203 432.561 51.8203C425.565 51.8203 420.028 49.5303 415.949 44.9502C411.87 40.3929 409.831 34.195 409.831 26.3564C409.831 18.5179 411.87 12.3086 415.949 7.72852C420.028 3.14844 425.565 0.858398 432.561 0.858398ZM432.561 6.53223C427.525 6.53223 423.526 8.30957 420.563 11.8643C417.624 15.4417 416.154 20.2725 416.154 26.3564C416.154 32.4176 417.624 37.237 420.563 40.8145C423.526 44.3691 427.525 46.1465 432.561 46.1465C437.596 46.1465 441.595 44.3691 444.558 40.8145C447.497 37.237 448.967 32.4176 448.967 26.3564C448.967 20.2725 447.497 15.4417 444.558 11.8643C441.595 8.30957 437.596 6.53223 432.561 6.53223ZM531.853 51V28.5439H504.782V51H498.63V1.67871H504.782V23.0068H531.853V1.67871H538.005V51H531.853ZM610.363 36.8838H590.744L585.788 51H579.328L597.512 1.67871H603.596L621.779 51H615.319L610.363 36.8838ZM592.556 31.6543H608.552L600.656 9.16406H600.451L592.556 31.6543ZM748.586 36.2002C748.586 40.5524 747.116 44.1071 744.177 46.8643C741.215 49.6214 737.421 51 732.795 51H714.851V1.67871H743.664V7.21582H721.003V21.332H732.727C737.375 21.332 741.18 22.7106 744.143 25.4678C747.105 28.2477 748.586 31.8252 748.586 36.2002ZM731.188 45.4629C734.72 45.4629 737.455 44.6654 739.392 43.0703C741.306 41.4525 742.263 39.1624 742.263 36.2002C742.263 33.2152 741.294 30.9137 739.357 29.2959C737.443 27.6781 734.72 26.8691 731.188 26.8691H721.003V45.4629H731.188ZM826.14 11.7617H825.593L798.933 51H792.849V1.67871H798.933V41.0537H799.479L826.14 1.67871H832.224V51H826.14V11.7617ZM877.478 1.67871H883.63V45.4629H901.472V1.67871H907.624V45.4629H925.466V1.67871H931.618V51H877.478V1.67871ZM1014.5 51H1006.06L983.298 27.04H983.024V51H976.872V1.67871H983.024V24.4082H983.298L1004.49 1.67871H1012.21L989.792 25.2627L1014.5 51ZM1086.11 51H1055.55V1.67871H1086.11V7.21582H1061.71V23.041H1084.85V28.5098H1061.71V45.4629H1086.11V51ZM1167.56 51H1159.12L1136.35 27.04H1136.08V51H1129.93V1.67871H1136.08V24.4082H1136.35L1157.55 1.67871H1165.27L1142.85 25.2627L1167.56 51Z" fill="white"/>
</svg>
