<svg width="877" height="82" viewBox="0 0 877 82" fill="none" xmlns="http://www.w3.org/2000/svg">
<path d="M47.902 41.94C47.902 47.12 47.0387 51.6467 45.312 55.52C43.632 59.3467 41.042 62.3333 37.542 64.48C34.042 66.6267 29.562 67.7 24.102 67.7C18.6887 67.7 14.2087 66.6267 10.662 64.48C7.16201 62.3333 4.54867 59.3233 2.822 55.45C1.142 51.5767 0.302005 47.05 0.302005 41.87C0.302005 36.69 1.142 32.1867 2.822 28.36C4.54867 24.5333 7.16201 21.57 10.662 19.47C14.2087 17.3233 18.712 16.25 24.172 16.25C29.5853 16.25 34.042 17.3233 37.542 19.47C41.042 21.57 43.632 24.5567 45.312 28.43C47.0387 32.2567 47.902 36.76 47.902 41.94ZM11.432 41.94C11.432 47.1667 12.4353 51.2967 14.442 54.33C16.4487 57.3167 19.6687 58.81 24.102 58.81C28.6287 58.81 31.872 57.3167 33.832 54.33C35.792 51.2967 36.772 47.1667 36.772 41.94C36.772 36.6667 35.792 32.5367 33.832 29.55C31.872 26.5633 28.652 25.07 24.172 25.07C19.692 25.07 16.4487 26.5633 14.442 29.55C12.4353 32.5367 11.432 36.6667 11.432 41.94ZM76.0858 67H65.5158V25.84H51.9358V17.02H89.6658V25.84H76.0858V67ZM117.916 25.14C113.856 25.14 110.752 26.6567 108.606 29.69C106.459 32.7233 105.386 36.8767 105.386 42.15C105.386 47.47 106.366 51.6 108.326 54.54C110.332 57.4333 113.529 58.88 117.916 58.88C119.969 58.88 121.999 58.6467 124.006 58.18C126.059 57.7133 128.276 57.06 130.656 56.22V65.11C128.462 65.9967 126.292 66.65 124.146 67.07C121.999 67.49 119.596 67.7 116.936 67.7C111.802 67.7 107.556 66.65 104.196 64.55C100.882 62.4033 98.4323 59.4167 96.8457 55.59C95.259 51.7167 94.4657 47.2133 94.4657 42.08C94.4657 37.04 95.3757 32.5833 97.1957 28.71C99.0157 24.8367 101.652 21.8033 105.106 19.61C108.606 17.4167 112.876 16.32 117.916 16.32C120.389 16.32 122.862 16.6467 125.336 17.3C127.856 17.9067 130.259 18.7467 132.546 19.82L129.116 28.43C127.249 27.5433 125.359 26.7733 123.446 26.12C121.579 25.4667 119.736 25.14 117.916 25.14ZM182.716 67H170.676L152.546 41.66V67H141.976V17.02H152.546V41.24L170.466 17.02H181.736L163.536 41.03L182.716 67ZM220.297 67L216.657 55.1H198.457L194.817 67H183.407L201.047 16.81H213.997L231.707 67H220.297ZM210.497 34.59C210.264 33.7967 209.961 32.7933 209.587 31.58C209.214 30.3667 208.841 29.13 208.467 27.87C208.094 26.61 207.791 25.5133 207.557 24.58C207.324 25.5133 206.997 26.68 206.577 28.08C206.204 29.4333 205.831 30.74 205.457 32C205.131 33.2133 204.874 34.0767 204.687 34.59L201.117 46.21H214.137L210.497 34.59ZM279.687 67H269.117V45.44H249.307V67H238.737V17.02H249.307V36.62H269.117V17.02H279.687V67ZM292.963 17.02H302.483V41.17C302.483 42.3367 302.459 43.6433 302.413 45.09C302.366 46.5367 302.319 47.96 302.273 49.36C302.226 50.7133 302.179 51.9033 302.133 52.93C302.086 53.91 302.039 54.5867 301.993 54.96H302.203L325.303 17.02H337.973V67H328.523V42.99C328.523 41.73 328.546 40.3533 328.593 38.86C328.639 37.32 328.686 35.85 328.733 34.45C328.826 33.05 328.896 31.8367 328.943 30.81C329.036 29.7367 329.106 29.0367 329.153 28.71H328.873L305.703 67H292.963V17.02ZM367.25 17.02C373.69 17.02 378.38 18.42 381.32 21.22C384.306 23.9733 385.8 27.7767 385.8 32.63C385.8 35.5233 385.193 38.2533 383.98 40.82C382.766 43.34 380.736 45.37 377.89 46.91C375.09 48.45 371.263 49.22 366.41 49.22H361.86V67H351.29V17.02H367.25ZM366.69 25.7H361.86V40.54H365.36C368.346 40.54 370.703 39.9567 372.43 38.79C374.203 37.5767 375.09 35.64 375.09 32.98C375.09 28.1267 372.29 25.7 366.69 25.7ZM420.585 52.37C419.185 55.5433 417.691 58.2967 416.105 60.63C414.565 62.9167 412.581 64.6667 410.155 65.88C407.728 67.0933 404.555 67.7 400.635 67.7C399.421 67.7 398.091 67.6067 396.645 67.42C395.198 67.2333 393.868 66.9767 392.655 66.65V57.55C393.775 58.0167 395.011 58.3433 396.365 58.53C397.718 58.7167 398.978 58.81 400.145 58.81C402.478 58.81 404.158 58.25 405.185 57.13C406.211 55.9633 407.028 54.5633 407.635 52.93L390.345 17.02H401.545L410.855 38.65C411.181 39.35 411.625 40.3533 412.185 41.66C412.745 42.92 413.165 43.9933 413.445 44.88H413.795C414.075 44.04 414.471 42.9433 414.985 41.59C415.545 40.2367 416.035 39.0467 416.455 38.02L425.135 17.02H436.055L420.585 52.37ZM483.311 0.569996C483.077 2.99666 482.401 5.14333 481.281 7.01C480.161 8.83 478.411 10.2533 476.031 11.28C473.651 12.3067 470.454 12.82 466.441 12.82C462.334 12.82 459.114 12.33 456.781 11.35C454.494 10.3233 452.861 8.9 451.881 7.08C450.901 5.26 450.317 3.09 450.131 0.569996H459.441C459.674 3.13666 460.327 4.84 461.401 5.68C462.474 6.52 464.224 6.94 466.651 6.94C468.657 6.94 470.291 6.49666 471.551 5.61C472.857 4.67667 473.627 2.99666 473.861 0.569996H483.311ZM443.061 17.02H452.581V41.17C452.581 42.3367 452.557 43.6433 452.511 45.09C452.464 46.5367 452.417 47.96 452.371 49.36C452.324 50.7133 452.277 51.9033 452.231 52.93C452.184 53.91 452.137 54.5867 452.091 54.96H452.301L475.401 17.02H488.071V67H478.621V42.99C478.621 41.73 478.644 40.3533 478.691 38.86C478.737 37.32 478.784 35.85 478.831 34.45C478.924 33.05 478.994 31.8367 479.041 30.81C479.134 29.7367 479.204 29.0367 479.251 28.71H478.971L455.801 67H443.061V17.02ZM520.638 67H510.068V25.84H496.488V17.02H534.218V25.84H520.638V67ZM571.395 67H542.625V17.02H571.395V25.7H553.195V36.69H570.135V45.37H553.195V58.25H571.395V67ZM620.938 18.07C605.958 18.07 597.208 28.85 597.208 42.85C597.208 56.71 605.118 67.7 620.308 67.7C623.178 67.7 625.768 67.35 628.078 66.65L641.518 75.96L647.608 69.03L636.758 61.61C641.588 56.92 644.038 50.13 644.038 42.71C644.038 27.94 635.078 18.07 620.938 18.07ZM620.518 26.54C629.478 26.54 633.258 33.68 633.258 42.85C633.258 51.46 629.968 59.23 620.658 59.23C612.118 59.23 607.988 52.09 607.988 42.64C607.988 33.26 611.768 26.54 620.518 26.54ZM670.962 47.68C678.732 47.68 680.062 50.2 680.062 55.45V56.15C680.062 61.26 680.202 64.9 681.042 67H690.982C690.282 64.76 690.282 61.05 690.282 57.83V55.45C690.282 46.77 686.642 44.32 684.262 43.41C687.762 41.94 691.262 38.44 691.262 32C691.262 24.51 685.592 18.77 675.092 18.77H653.882V67H664.102V47.68H670.962ZM664.102 27.03H673.062C678.172 27.03 680.762 29.27 680.762 33.19C680.762 37.18 678.522 39.35 672.852 39.35H664.102V27.03ZM698.969 44.6V53.35H718.429V44.6H698.969ZM769.931 67H757.891L739.761 41.66V67H729.191V17.02H739.761V41.24L757.681 17.02H768.951L750.751 41.03L769.931 67ZM820.915 41.94C820.915 47.12 820.052 51.6467 818.325 55.52C816.645 59.3467 814.055 62.3333 810.555 64.48C807.055 66.6267 802.575 67.7 797.115 67.7C791.702 67.7 787.222 66.6267 783.675 64.48C780.175 62.3333 777.562 59.3233 775.835 55.45C774.155 51.5767 773.315 47.05 773.315 41.87C773.315 36.69 774.155 32.1867 775.835 28.36C777.562 24.5333 780.175 21.57 783.675 19.47C787.222 17.3233 791.725 16.25 797.185 16.25C802.599 16.25 807.055 17.3233 810.555 19.47C814.055 21.57 816.645 24.5567 818.325 28.43C820.052 32.2567 820.915 36.76 820.915 41.94ZM784.445 41.94C784.445 47.1667 785.449 51.2967 787.455 54.33C789.462 57.3167 792.682 58.81 797.115 58.81C801.642 58.81 804.885 57.3167 806.845 54.33C808.805 51.2967 809.785 47.1667 809.785 41.94C809.785 36.6667 808.805 32.5367 806.845 29.55C804.885 26.5633 801.665 25.07 797.185 25.07C792.705 25.07 789.462 26.5633 787.455 29.55C785.449 32.5367 784.445 36.6667 784.445 41.94ZM869.731 17.02V58.18H876.381V81.56H866.161V67H834.871V81.56H824.651V58.18H828.501C830.274 54.68 831.931 50.9467 833.471 46.98C835.011 42.9667 836.388 38.51 837.601 33.61C838.861 28.71 839.864 23.18 840.611 17.02H869.731ZM849.011 25.84C848.591 29.06 847.914 32.56 846.981 36.34C846.094 40.0733 845.021 43.83 843.761 47.61C842.501 51.3433 841.124 54.8667 839.631 58.18H859.161V25.84H849.011Z" fill="white"/>
</svg>
