<svg width="1544" height="65" viewBox="0 0 1544 65" fill="none" xmlns="http://www.w3.org/2000/svg">
<path d="M46.6773 25.94C46.6773 31.12 45.7907 35.6467 44.0173 39.52C42.2907 43.3467 39.724 46.3333 36.3173 48.48C32.9107 50.6267 28.6873 51.7 23.6473 51.7C18.4673 51.7 14.1507 50.6267 10.6973 48.48C7.29068 46.3333 4.74734 43.3233 3.06734 39.45C1.38734 35.5767 0.547344 31.05 0.547344 25.87C0.547344 20.7367 1.38734 16.2567 3.06734 12.43C4.74734 8.60333 7.29068 5.61667 10.6973 3.47C14.1507 1.32333 18.4907 0.249998 23.7173 0.249998C28.7107 0.249998 32.9107 1.32333 36.3173 3.47C39.724 5.57 42.2907 8.55667 44.0173 12.43C45.7907 16.2567 46.6773 20.76 46.6773 25.94ZM7.19734 25.94C7.19734 32.24 8.52734 37.21 11.1873 40.85C13.8473 44.4433 18.0007 46.24 23.6473 46.24C29.3407 46.24 33.494 44.4433 36.1073 40.85C38.7207 37.21 40.0273 32.24 40.0273 25.94C40.0273 19.64 38.7207 14.7167 36.1073 11.17C33.494 7.57667 29.364 5.78 23.7173 5.78C18.0707 5.78 13.894 7.57667 11.1873 11.17C8.52734 14.7167 7.19734 19.64 7.19734 25.94ZM85.4557 51H79.1557V6.55H63.5457V1.02H100.996V6.55H85.4557V51ZM122.532 51V1.02H160.052V51H153.822V6.55H128.832V51H122.532ZM200.963 1.02C207.497 1.02 212.257 2.30333 215.243 4.87C218.23 7.43666 219.723 11.0533 219.723 15.72C219.723 18.4733 219.093 21.0633 217.833 23.49C216.62 25.87 214.543 27.8067 211.603 29.3C208.71 30.7933 204.767 31.54 199.773 31.54H194.033V51H187.733V1.02H200.963ZM200.403 6.41H194.033V26.15H199.073C203.833 26.15 207.38 25.38 209.713 23.84C212.047 22.3 213.213 19.6867 213.213 16C213.213 12.78 212.187 10.3767 210.133 8.79C208.08 7.20333 204.837 6.41 200.403 6.41ZM271.99 51L265.97 35.53H246.16L240.21 51H233.84L253.37 0.809999H259.04L278.5 51H271.99ZM258.48 14.81C258.34 14.4367 258.107 13.76 257.78 12.78C257.453 11.8 257.127 10.7967 256.8 9.77C256.52 8.69666 256.287 7.88 256.1 7.32C255.773 8.76666 255.4 10.19 254.98 11.59C254.56 12.9433 254.21 14.0167 253.93 14.81L248.26 29.93H264.08L258.48 14.81ZM313.617 1.02C319.87 1.02 324.584 1.95333 327.757 3.82C330.977 5.64 332.587 8.83666 332.587 13.41C332.587 16.35 331.77 18.8 330.137 20.76C328.504 22.6733 326.147 23.91 323.067 24.47V24.82C325.167 25.1467 327.057 25.7533 328.737 26.64C330.464 27.5267 331.817 28.7867 332.797 30.42C333.777 32.0533 334.267 34.1767 334.267 36.79C334.267 41.3167 332.704 44.8167 329.577 47.29C326.497 49.7633 322.274 51 316.907 51H299.337V1.02H313.617ZM314.877 22.3C319.17 22.3 322.11 21.6233 323.697 20.27C325.284 18.87 326.077 16.8167 326.077 14.11C326.077 11.3567 325.097 9.39667 323.137 8.23C321.224 7.01667 318.144 6.41 313.897 6.41H305.637V22.3H314.877ZM305.637 27.55V45.68H315.717C320.15 45.68 323.23 44.8167 324.957 43.09C326.684 41.3633 327.547 39.1 327.547 36.3C327.547 33.6867 326.637 31.5867 324.817 30C323.044 28.3667 319.847 27.55 315.227 27.55H305.637ZM358.934 1.02H364.814V28.46C364.814 30 364.791 31.7267 364.744 33.64C364.698 35.5533 364.628 37.3033 364.534 38.89C364.488 40.4767 364.418 41.6433 364.324 42.39H364.604L392.114 1.02H399.114V51H393.234V23.84C393.234 22.1133 393.258 20.27 393.304 18.31C393.398 16.35 393.491 14.5533 393.584 12.92C393.678 11.2867 393.748 10.12 393.794 9.42H393.514L365.934 51H358.934V1.02ZM442.415 51H436.115V6.55H420.505V1.02H457.955V6.55H442.415V51ZM479.491 51V1.02H485.791V22.16H495.171C499.838 22.16 503.548 22.79 506.301 24.05C509.055 25.31 511.038 27.0133 512.251 29.16C513.465 31.3067 514.071 33.71 514.071 36.37C514.071 40.7567 512.578 44.3033 509.591 47.01C506.605 49.67 502.055 51 495.941 51H479.491ZM495.311 45.61C503.478 45.61 507.561 42.53 507.561 36.37C507.561 33.15 506.441 30.8867 504.201 29.58C501.961 28.2733 498.695 27.62 494.401 27.62H485.791V45.61H495.311ZM584.388 1.02C590.642 1.02 595.355 1.95333 598.528 3.82C601.748 5.64 603.358 8.83666 603.358 13.41C603.358 16.35 602.542 18.8 600.908 20.76C599.275 22.6733 596.918 23.91 593.838 24.47V24.82C595.938 25.1467 597.828 25.7533 599.508 26.64C601.235 27.5267 602.588 28.7867 603.568 30.42C604.548 32.0533 605.038 34.1767 605.038 36.79C605.038 41.3167 603.475 44.8167 600.348 47.29C597.268 49.7633 593.045 51 587.678 51H570.108V1.02H584.388ZM585.648 22.3C589.942 22.3 592.882 21.6233 594.468 20.27C596.055 18.87 596.848 16.8167 596.848 14.11C596.848 11.3567 595.868 9.39667 593.908 8.23C591.995 7.01667 588.915 6.41 584.668 6.41H576.408V22.3H585.648ZM576.408 27.55V45.68H586.488C590.922 45.68 594.002 44.8167 595.728 43.09C597.455 41.3633 598.318 39.1 598.318 36.3C598.318 33.6867 597.408 31.5867 595.588 30C593.815 28.3667 590.618 27.55 585.998 27.55H576.408ZM682.761 5.85C677.394 5.85 673.171 7.64666 670.091 11.24C667.011 14.8333 665.471 19.7567 665.471 26.01C665.471 32.2167 666.894 37.14 669.741 40.78C672.634 44.3733 676.951 46.17 682.691 46.17C684.884 46.17 686.961 45.9833 688.921 45.61C690.881 45.2367 692.794 44.77 694.661 44.21V49.67C692.794 50.37 690.857 50.8833 688.851 51.21C686.891 51.5367 684.534 51.7 681.781 51.7C676.694 51.7 672.447 50.65 669.041 48.55C665.634 46.45 663.067 43.4633 661.341 39.59C659.661 35.7167 658.821 31.1667 658.821 25.94C658.821 20.9 659.731 16.4667 661.551 12.64C663.417 8.76666 666.147 5.75666 669.741 3.61C673.334 1.41666 677.697 0.319997 682.831 0.319997C688.104 0.319997 692.701 1.3 696.621 3.26L694.101 8.58C692.561 7.88 690.834 7.25 688.921 6.69C687.054 6.13 685.001 5.85 682.761 5.85ZM761.812 25.94C761.812 31.12 760.925 35.6467 759.152 39.52C757.425 43.3467 754.859 46.3333 751.452 48.48C748.045 50.6267 743.822 51.7 738.782 51.7C733.602 51.7 729.285 50.6267 725.832 48.48C722.425 46.3333 719.882 43.3233 718.202 39.45C716.522 35.5767 715.682 31.05 715.682 25.87C715.682 20.7367 716.522 16.2567 718.202 12.43C719.882 8.60333 722.425 5.61667 725.832 3.47C729.285 1.32333 733.625 0.249998 738.852 0.249998C743.845 0.249998 748.045 1.32333 751.452 3.47C754.859 5.57 757.425 8.55667 759.152 12.43C760.925 16.2567 761.812 20.76 761.812 25.94ZM722.332 25.94C722.332 32.24 723.662 37.21 726.322 40.85C728.982 44.4433 733.135 46.24 738.782 46.24C744.475 46.24 748.629 44.4433 751.242 40.85C753.855 37.21 755.162 32.24 755.162 25.94C755.162 19.64 753.855 14.7167 751.242 11.17C748.629 7.57667 744.499 5.78 738.852 5.78C733.205 5.78 729.029 7.57667 726.322 11.17C723.662 14.7167 722.332 19.64 722.332 25.94ZM830.5 45.47V64.16H824.48V51H786.89V1.02H793.19V45.4H818.18V1.02H824.41V45.47H830.5ZM852.844 1.02H858.724V28.46C858.724 30 858.701 31.7267 858.654 33.64C858.608 35.5533 858.538 37.3033 858.444 38.89C858.398 40.4767 858.328 41.6433 858.234 42.39H858.514L886.024 1.02H893.024V51H887.144V23.84C887.144 22.1133 887.168 20.27 887.214 18.31C887.308 16.35 887.401 14.5533 887.494 12.92C887.588 11.2867 887.658 10.12 887.704 9.42H887.424L859.844 51H852.844V1.02ZM951.865 51L945.845 35.53H926.035L920.085 51H913.715L933.245 0.809999H938.915L958.375 51H951.865ZM938.355 14.81C938.215 14.4367 937.982 13.76 937.655 12.78C937.328 11.8 937.002 10.7967 936.675 9.77C936.395 8.69666 936.162 7.88 935.975 7.32C935.648 8.76666 935.275 10.19 934.855 11.59C934.435 12.9433 934.085 14.0167 933.805 14.81L928.135 29.93H943.955L938.355 14.81ZM1015.19 51H1008.89V6.55H993.072C992.652 10.0033 992.185 13.6433 991.672 17.47C991.159 21.25 990.645 24.8667 990.132 28.32C989.619 31.7733 989.105 34.7133 988.592 37.14C987.985 40.2667 987.239 42.9267 986.352 45.12C985.465 47.3133 984.275 48.97 982.782 50.09C981.335 51.21 979.422 51.77 977.042 51.77C976.249 51.77 975.432 51.6767 974.592 51.49C973.799 51.35 973.099 51.1633 972.492 50.93V45.68C973.005 45.9133 973.589 46.1233 974.242 46.31C974.895 46.45 975.595 46.52 976.342 46.52C977.742 46.52 978.839 45.96 979.632 44.84C980.472 43.6733 981.125 42.25 981.592 40.57C982.059 38.8433 982.455 37.14 982.782 35.46C983.155 33.6867 983.599 31.0967 984.112 27.69C984.672 24.2367 985.255 20.2233 985.862 15.65C986.515 11.0767 987.169 6.2 987.822 1.02H1015.19V51ZM1042.77 51V1.02H1049.07V22.16H1058.45C1063.12 22.16 1066.83 22.79 1069.58 24.05C1072.34 25.31 1074.32 27.0133 1075.53 29.16C1076.75 31.3067 1077.35 33.71 1077.35 36.37C1077.35 40.7567 1075.86 44.3033 1072.87 47.01C1069.89 49.67 1065.34 51 1059.22 51H1042.77ZM1058.59 45.61C1066.76 45.61 1070.84 42.53 1070.84 36.37C1070.84 33.15 1069.72 30.8867 1067.48 29.58C1065.24 28.2733 1061.98 27.62 1057.68 27.62H1049.07V45.61H1058.59ZM1139.9 51H1133.6V27.69H1107.98V51H1101.68V1.02H1107.98V22.16H1133.6V1.02H1139.9V51ZM1188.5 36.79C1187.01 40.1033 1185.49 42.88 1183.95 45.12C1182.46 47.3133 1180.68 48.97 1178.63 50.09C1176.58 51.1633 1173.96 51.7 1170.79 51.7C1169.48 51.7 1168.25 51.6067 1167.08 51.42C1165.96 51.2333 1164.93 50.9767 1164 50.65V44.42C1164.93 44.84 1165.94 45.19 1167.01 45.47C1168.08 45.7033 1169.2 45.82 1170.37 45.82C1172.98 45.82 1175.04 45.26 1176.53 44.14C1178.07 43.02 1179.49 41.0367 1180.8 38.19L1161.55 1.02H1168.48L1182.41 28.53C1182.64 28.9967 1182.92 29.6033 1183.25 30.35C1183.58 31.05 1183.86 31.7267 1184.09 32.38H1184.37C1184.56 31.8667 1184.79 31.26 1185.07 30.56C1185.35 29.8133 1185.58 29.2067 1185.77 28.74L1197.81 1.02H1204.46L1188.5 36.79ZM1287.76 25.94C1287.76 31.12 1286.92 35.6467 1285.24 39.52C1283.61 43.3467 1281.16 46.3333 1277.89 48.48C1274.62 50.6267 1270.56 51.7 1265.71 51.7C1260.95 51.7 1256.94 50.72 1253.67 48.76C1250.45 46.8 1247.98 44.0233 1246.25 40.43C1244.52 36.8367 1243.57 32.59 1243.38 27.69H1231.55V51H1225.25V1.02H1231.55V22.16H1243.52C1243.85 17.7267 1244.87 13.8767 1246.6 10.61C1248.33 7.29667 1250.78 4.75333 1253.95 2.98C1257.12 1.16 1261 0.249998 1265.57 0.249998C1270.38 0.249998 1274.41 1.32333 1277.68 3.47C1280.99 5.57 1283.49 8.55667 1285.17 12.43C1286.9 16.2567 1287.76 20.76 1287.76 25.94ZM1249.96 25.94C1249.96 32.24 1251.2 37.21 1253.67 40.85C1256.19 44.4433 1260.13 46.24 1265.5 46.24C1270.96 46.24 1274.93 44.4433 1277.4 40.85C1279.92 37.21 1281.18 32.24 1281.18 25.94C1281.18 19.64 1279.94 14.7167 1277.47 11.17C1275 7.57667 1271.05 5.78 1265.64 5.78C1260.23 5.78 1256.26 7.57667 1253.74 11.17C1251.22 14.7633 1249.96 19.6867 1249.96 25.94ZM1366 5.85C1360.63 5.85 1356.41 7.64666 1353.33 11.24C1350.25 14.8333 1348.71 19.7567 1348.71 26.01C1348.71 32.2167 1350.13 37.14 1352.98 40.78C1355.87 44.3733 1360.19 46.17 1365.93 46.17C1368.12 46.17 1370.2 45.9833 1372.16 45.61C1374.12 45.2367 1376.03 44.77 1377.9 44.21V49.67C1376.03 50.37 1374.1 50.8833 1372.09 51.21C1370.13 51.5367 1367.77 51.7 1365.02 51.7C1359.93 51.7 1355.69 50.65 1352.28 48.55C1348.87 46.45 1346.31 43.4633 1344.58 39.59C1342.9 35.7167 1342.06 31.1667 1342.06 25.94C1342.06 20.9 1342.97 16.4667 1344.79 12.64C1346.66 8.76666 1349.39 5.75666 1352.98 3.61C1356.57 1.41666 1360.94 0.319997 1366.07 0.319997C1371.34 0.319997 1375.94 1.3 1379.86 3.26L1377.34 8.58C1375.8 7.88 1374.07 7.25 1372.16 6.69C1370.29 6.13 1368.24 5.85 1366 5.85ZM1430.74 51H1402.81V1.02H1430.74V6.55H1409.11V22.16H1429.48V27.62H1409.11V45.47H1430.74V51ZM1471.52 51H1465.22V6.55H1449.61V1.02H1487.06V6.55H1471.52V51ZM1508.6 51V1.02H1514.9V22.16H1524.28C1528.95 22.16 1532.66 22.79 1535.41 24.05C1538.16 25.31 1540.15 27.0133 1541.36 29.16C1542.57 31.3067 1543.18 33.71 1543.18 36.37C1543.18 40.7567 1541.69 44.3033 1538.7 47.01C1535.71 49.67 1531.16 51 1525.05 51H1508.6ZM1524.42 45.61C1532.59 45.61 1536.67 42.53 1536.67 36.37C1536.67 33.15 1535.55 30.8867 1533.31 29.58C1531.07 28.2733 1527.8 27.62 1523.51 27.62H1514.9V45.61H1524.42Z" fill="white"/>
</svg>
