<svg width="775" height="321" viewBox="0 0 775 321" fill="none" xmlns="http://www.w3.org/2000/svg">
<g filter="url(#filter0_d)">
<path d="M35.6406 130H19.1406V25H71.1906V130H54.3906V40H35.6406V130ZM117.954 25C126.254 25 132.404 27.2 136.404 31.6C140.504 36 142.554 42.45 142.554 50.95V64.6C142.554 73.1 140.504 79.55 136.404 83.95C132.404 88.35 126.254 90.55 117.954 90.55H110.154V130H93.6543V25H117.954ZM110.154 40V75.55H117.954C120.554 75.55 122.554 74.85 123.954 73.45C125.354 72.05 126.054 69.45 126.054 65.65V49.9C126.054 46.1 125.354 43.5 123.954 42.1C122.554 40.7 120.554 40 117.954 40H110.154ZM177.501 130H160.551V25H175.251V87.85L192.201 25H212.901V130H198.051V53.95L177.501 130ZM247.807 130H230.857L253.807 71.8L230.857 25H247.057L268.807 70.45V25H285.457V70.45L307.207 25H323.407L300.457 71.8L323.407 130H306.457L290.407 88.15L285.457 97.45V130H268.807V97.45L263.857 88.15L247.807 130ZM376.465 99.55L387.715 25H410.665V130H395.065V54.7L383.665 130H368.065L355.765 55.75V130H341.365V25H364.315L376.465 99.55ZM450.114 130H433.164V25H447.864V87.85L464.814 25H485.514V130H470.664V53.95L450.114 130ZM503.471 25H554.471V40H537.221V130H520.721V40H503.471V25ZM589.023 69.25H611.673V84.25H589.023V115H617.523V130H572.523V25H617.523V40H589.023V69.25ZM685.509 90.85V104.8C685.509 113.3 683.409 119.85 679.209 124.45C675.109 128.95 669.009 131.2 660.909 131.2C652.809 131.2 646.659 128.95 642.459 124.45C638.359 119.85 636.309 113.3 636.309 104.8V50.2C636.309 41.7 638.359 35.2 642.459 30.7C646.659 26.1 652.809 23.8 660.909 23.8C669.009 23.8 675.109 26.1 679.209 30.7C683.409 35.2 685.509 41.7 685.509 50.2V60.4H669.909V49.15C669.909 45.35 669.109 42.7 667.509 41.2C666.009 39.6 663.959 38.8 661.359 38.8C658.759 38.8 656.659 39.6 655.059 41.2C653.559 42.7 652.809 45.35 652.809 49.15V105.85C652.809 109.65 653.559 112.3 655.059 113.8C656.659 115.3 658.759 116.05 661.359 116.05C663.959 116.05 666.009 115.3 667.509 113.8C669.109 112.3 669.909 109.65 669.909 105.85V90.85H685.509ZM730.763 115C733.363 115 735.363 114.3 736.763 112.9C738.163 111.5 738.863 108.9 738.863 105.1V89.35C738.863 85.55 738.163 82.95 736.763 81.55C735.363 80.15 733.363 79.45 730.763 79.45H722.963V115H730.763ZM706.463 130V25H722.963V64.45H730.763C739.063 64.45 745.213 66.65 749.213 71.05C753.313 75.45 755.363 81.9 755.363 90.4V104.05C755.363 112.55 753.313 119 749.213 123.4C745.213 127.8 739.063 130 730.763 130H706.463ZM212.477 239.45H220.277C228.577 239.45 234.727 241.65 238.727 246.05C242.827 250.45 244.877 256.9 244.877 265.4V279.05C244.877 287.55 242.827 294 238.727 298.4C234.727 302.8 228.577 305 220.277 305H195.977V200H239.627V215H212.477V239.45ZM220.277 290C222.877 290 224.877 289.3 226.277 287.9C227.677 286.5 228.377 283.9 228.377 280.1V264.35C228.377 260.55 227.677 257.95 226.277 256.55C224.877 255.15 222.877 254.45 220.277 254.45H212.477V290H220.277ZM311.42 215H292.22V278.9C292.22 284.2 291.57 288.55 290.27 291.95C288.97 295.35 287.22 298.05 285.02 300.05C282.82 301.95 280.27 303.3 277.37 304.1C274.57 304.9 271.62 305.3 268.52 305.3C267.02 305.3 265.67 305.3 264.47 305.3C263.27 305.3 261.97 305.2 260.57 305V290C261.47 290.1 262.42 290.15 263.42 290.15C264.42 290.15 265.37 290.15 266.27 290.15C268.87 290.15 271.07 289.5 272.87 288.2C274.77 286.9 275.72 284.2 275.72 280.1V200H327.92V305H311.42V215ZM367.374 305H350.424V200H365.124V262.85L382.074 200H402.774V305H387.924V228.95L367.374 305ZM437.68 305H420.73L443.68 246.8L420.73 200H436.93L458.68 245.45V200H475.33V245.45L497.08 200H513.28L490.33 246.8L513.28 305H496.33L480.28 263.15L475.33 272.45V305H458.68V272.45L453.73 263.15L437.68 305ZM547.738 244.25H570.388V259.25H547.738V290H576.238V305H531.238V200H576.238V215H547.738V244.25Z" fill="#D39742"/>
</g>
<defs>
<filter id="filter0_d" x="0.140625" y="0.799805" width="774.222" height="319.5" filterUnits="userSpaceOnUse" color-interpolation-filters="sRGB">
<feFlood flood-opacity="0" result="BackgroundImageFix"/>
<feColorMatrix in="SourceAlpha" type="matrix" values="0 0 0 0 0 0 0 0 0 0 0 0 0 0 0 0 0 0 127 0"/>
<feOffset dy="-4"/>
<feGaussianBlur stdDeviation="9.5"/>
<feColorMatrix type="matrix" values="0 0 0 0 1 0 0 0 0 1 0 0 0 0 1 0 0 0 0.4 0"/>
<feBlend mode="normal" in2="BackgroundImageFix" result="effect1_dropShadow"/>
<feBlend mode="normal" in="SourceGraphic" in2="effect1_dropShadow" result="shape"/>
</filter>
</defs>
</svg>
