<svg width="1056" height="46" viewBox="0 0 1056 46" fill="none" xmlns="http://www.w3.org/2000/svg">
<path d="M37.1699 36H31.5059V11H31.335L21.1543 35.707H16.8574L6.67676 11H6.50586V36H0.817383V0.770508H8.11719L18.9082 27.3574H19.1035L29.8945 0.770508H37.1699V36ZM74.0049 9.31543H80.0352V36H74.0049V9.31543ZM55.7676 22.0107V31.3125H60.1621C61.6595 31.3125 62.8558 30.8893 63.751 30.043C64.6299 29.1966 65.0693 28.0736 65.0693 26.6738C65.0693 25.2741 64.6217 24.1429 63.7266 23.2803C62.8314 22.4339 61.6432 22.0107 60.1621 22.0107H55.7676ZM49.7129 9.31543H55.7676V17.3721H60.8945C64.0033 17.3721 66.4854 18.2184 68.3408 19.9111C70.18 21.5876 71.0996 23.8499 71.0996 26.6982C71.0996 29.5465 70.18 31.8089 68.3408 33.4854C66.4854 35.1618 64.0033 36 60.8945 36H49.7129V9.31543ZM120.6 36.3906C116.661 36.3906 113.536 35.1618 111.225 32.7041C108.913 30.2464 107.758 26.8936 107.758 22.6455C107.758 18.4463 108.922 15.1097 111.249 12.6357C113.56 10.1781 116.677 8.94922 120.6 8.94922C124.538 8.94922 127.663 10.1781 129.975 12.6357C132.302 15.0934 133.466 18.43 133.466 22.6455C133.466 26.8936 132.31 30.2464 129.999 32.7041C127.688 35.1618 124.555 36.3906 120.6 36.3906ZM120.6 31.5322C122.699 31.5322 124.343 30.751 125.531 29.1885C126.703 27.6423 127.289 25.4694 127.289 22.6699C127.289 19.8867 126.695 17.7139 125.507 16.1514C124.335 14.5889 122.699 13.8076 120.6 13.8076C118.516 13.8076 116.889 14.5889 115.717 16.1514C114.529 17.7139 113.935 19.8867 113.935 22.6699C113.935 25.4531 114.529 27.626 115.717 29.1885C116.889 30.751 118.516 31.5322 120.6 31.5322ZM164.466 14.0518H156.238V36H150.184V14.0518H141.956V9.31543H164.466V14.0518ZM191.926 14.0518H180.451V36H174.396V9.31543H197.956V36H191.926V14.0518ZM224.122 9.02246C227.524 9.02246 230.226 10.2513 232.228 12.709C234.229 15.1667 235.23 18.487 235.23 22.6699C235.23 26.8366 234.238 30.1488 232.252 32.6064C230.266 35.0641 227.589 36.293 224.22 36.293C220.265 36.293 217.473 34.7223 215.846 31.5811H215.724V44.5693H209.645V9.31543H215.577V13.8076H215.699C216.432 12.3428 217.555 11.179 219.068 10.3164C220.582 9.45378 222.267 9.02246 224.122 9.02246ZM222.34 31.2393C224.358 31.2393 225.969 30.4661 227.174 28.9199C228.395 27.3574 229.005 25.2741 229.005 22.6699C229.005 20.0658 228.395 17.9824 227.174 16.4199C225.969 14.8574 224.358 14.0762 222.34 14.0762C220.354 14.0762 218.751 14.8656 217.53 16.4443C216.31 18.0231 215.699 20.0983 215.699 22.6699C215.699 25.2415 216.31 27.3167 217.53 28.8955C218.751 30.458 220.354 31.2393 222.34 31.2393ZM255.464 31.6299C257.319 31.6299 258.866 31.109 260.103 30.0674C261.34 29.0257 261.958 27.6992 261.958 26.0879V24.0615L255.854 24.4521C252.469 24.68 250.776 25.9007 250.776 28.1143C250.776 29.1885 251.208 30.043 252.07 30.6777C252.917 31.3125 254.048 31.6299 255.464 31.6299ZM253.682 36.293C251.045 36.293 248.888 35.5605 247.212 34.0957C245.519 32.6309 244.673 30.7184 244.673 28.3584C244.673 25.9821 245.56 24.1266 247.334 22.792C249.092 21.4574 251.655 20.6842 255.024 20.4727L261.958 20.0576V18.1045C261.958 16.7048 261.502 15.6224 260.591 14.8574C259.696 14.1087 258.426 13.7344 256.782 13.7344C255.415 13.7344 254.268 14.0599 253.34 14.7109C252.412 15.362 251.842 16.2327 251.631 17.3232H246.016C246.097 14.8818 247.155 12.8717 249.189 11.293C251.24 9.73047 253.836 8.94922 256.978 8.94922C260.314 8.94922 262.975 9.74674 264.961 11.3418C266.963 12.9368 267.964 15.0609 267.964 17.7139V36H262.129V31.7031H261.982C261.25 33.1191 260.127 34.2422 258.613 35.0723C257.116 35.8861 255.472 36.293 253.682 36.293ZM285.17 13.5146V20.2285H290.028C293.007 20.2285 294.496 19.0973 294.496 16.835C294.496 14.6214 293.17 13.5146 290.517 13.5146H285.17ZM285.17 24.1836V31.8008H290.932C294.024 31.8008 295.57 30.5394 295.57 28.0166C295.57 25.4613 293.845 24.1836 290.395 24.1836H285.17ZM279.213 9.31543H291.908C294.561 9.31543 296.653 9.91764 298.183 11.1221C299.696 12.3265 300.453 13.9867 300.453 16.1025C300.453 17.5023 300.006 18.7474 299.11 19.8379C298.231 20.9447 297.133 21.612 295.814 21.8398V22.0352C297.556 22.263 298.956 22.9466 300.014 24.0859C301.088 25.2415 301.625 26.6494 301.625 28.3096C301.625 30.6533 300.771 32.5169 299.062 33.9004C297.336 35.3001 295.009 36 292.079 36H279.213V9.31543ZM312.361 36V9.31543H318.318V27.333H318.514L330.525 9.31543H336.507V36H330.525V17.8604H330.33L318.318 36H312.361ZM348.195 36V9.31543H355.91L363.942 28.1631H364.138L372.194 9.31543H379.763V36H373.952V17.7139H373.757L366.14 34.8037H361.794L354.177 17.7139H353.981V36H348.195ZM414.59 13.5146V20.2285H419.448C422.427 20.2285 423.916 19.0973 423.916 16.835C423.916 14.6214 422.59 13.5146 419.937 13.5146H414.59ZM414.59 24.1836V31.8008H420.352C423.444 31.8008 424.99 30.5394 424.99 28.0166C424.99 25.4613 423.265 24.1836 419.814 24.1836H414.59ZM408.633 9.31543H421.328C423.981 9.31543 426.073 9.91764 427.603 11.1221C429.116 12.3265 429.873 13.9867 429.873 16.1025C429.873 17.5023 429.425 18.7474 428.53 19.8379C427.651 20.9447 426.553 21.612 425.234 21.8398V22.0352C426.976 22.263 428.376 22.9466 429.434 24.0859C430.508 25.2415 431.045 26.6494 431.045 28.3096C431.045 30.6533 430.19 32.5169 428.481 33.9004C426.756 35.3001 424.429 36 421.499 36H408.633V9.31543ZM451.425 31.6299C453.28 31.6299 454.826 31.109 456.063 30.0674C457.3 29.0257 457.919 27.6992 457.919 26.0879V24.0615L451.815 24.4521C448.43 24.68 446.737 25.9007 446.737 28.1143C446.737 29.1885 447.169 30.043 448.031 30.6777C448.878 31.3125 450.009 31.6299 451.425 31.6299ZM449.643 36.293C447.006 36.293 444.849 35.5605 443.173 34.0957C441.48 32.6309 440.634 30.7184 440.634 28.3584C440.634 25.9821 441.521 24.1266 443.295 22.792C445.053 21.4574 447.616 20.6842 450.985 20.4727L457.919 20.0576V18.1045C457.919 16.7048 457.463 15.6224 456.552 14.8574C455.657 14.1087 454.387 13.7344 452.743 13.7344C451.376 13.7344 450.229 14.0599 449.301 14.7109C448.373 15.362 447.803 16.2327 447.592 17.3232H441.977C442.058 14.8818 443.116 12.8717 445.15 11.293C447.201 9.73047 449.797 8.94922 452.938 8.94922C456.275 8.94922 458.936 9.74674 460.922 11.3418C462.924 12.9368 463.925 15.0609 463.925 17.7139V36H458.09V31.7031H457.943C457.211 33.1191 456.088 34.2422 454.574 35.0723C453.077 35.8861 451.433 36.293 449.643 36.293ZM475.174 9.31543H481.229V31.2881H489.749V9.31543H495.804V31.2881H504.324V9.31543H510.379V36H475.174V9.31543ZM525.021 45.7168C523.833 45.7168 523.036 45.6761 522.629 45.5947V40.7607C522.938 40.8258 523.492 40.8584 524.289 40.8584C526.779 40.8584 528.374 39.6865 529.074 37.3428L529.416 36.0977L519.87 9.31543H526.486L532.883 30.751H533.005L539.377 9.31543H545.798L536.13 36.9277C534.991 40.1992 533.607 42.486 531.979 43.7881C530.336 45.0739 528.016 45.7168 525.021 45.7168ZM585.605 13.7344C583.115 13.7995 581.154 14.6133 579.722 16.1758C578.257 17.7708 577.524 19.9355 577.524 22.6699C577.524 25.4043 578.249 27.5609 579.697 29.1396C581.146 30.7021 583.115 31.5241 585.605 31.6055V13.7344ZM599.521 22.6699C599.521 19.9355 598.789 17.7708 597.324 16.1758C595.892 14.6133 593.931 13.7995 591.44 13.7344V31.6055C593.914 31.5404 595.876 30.7184 597.324 29.1396C598.789 27.5446 599.521 25.388 599.521 22.6699ZM585.557 36.3662C581.227 36.2686 577.793 34.999 575.254 32.5576C572.682 30.0999 571.396 26.7959 571.396 22.6455C571.396 18.5277 572.69 15.2318 575.278 12.7578C577.834 10.3164 581.26 9.05501 585.557 8.97363V0.575195H591.489V8.97363C595.802 9.05501 599.237 10.3164 601.792 12.7578C604.364 15.2155 605.649 18.5195 605.649 22.6699C605.649 26.7878 604.355 30.0837 601.768 32.5576C599.196 35.0153 595.77 36.2848 591.489 36.3662V44.5693H585.557V36.3662ZM627.934 36.3906C623.995 36.3906 620.87 35.1618 618.559 32.7041C616.247 30.2464 615.092 26.8936 615.092 22.6455C615.092 18.4463 616.256 15.1097 618.583 12.6357C620.894 10.1781 624.011 8.94922 627.934 8.94922C631.872 8.94922 634.997 10.1781 637.309 12.6357C639.636 15.0934 640.8 18.43 640.8 22.6455C640.8 26.8936 639.644 30.2464 637.333 32.7041C635.022 35.1618 631.889 36.3906 627.934 36.3906ZM627.934 31.5322C630.033 31.5322 631.677 30.751 632.865 29.1885C634.037 27.6423 634.623 25.4694 634.623 22.6699C634.623 19.8867 634.029 17.7139 632.841 16.1514C631.669 14.5889 630.033 13.8076 627.934 13.8076C625.85 13.8076 624.223 14.5889 623.051 16.1514C621.863 17.7139 621.269 19.8867 621.269 22.6699C621.269 25.4531 621.863 27.626 623.051 29.1885C624.223 30.751 625.85 31.5322 627.934 31.5322ZM671.8 14.0518H663.572V36H657.518V14.0518H649.29V9.31543H671.8V14.0518ZM693.107 36.3906C689.169 36.3906 686.044 35.1618 683.732 32.7041C681.421 30.2464 680.266 26.8936 680.266 22.6455C680.266 18.4463 681.429 15.1097 683.757 12.6357C686.068 10.1781 689.185 8.94922 693.107 8.94922C697.046 8.94922 700.171 10.1781 702.482 12.6357C704.81 15.0934 705.974 18.43 705.974 22.6455C705.974 26.8936 704.818 30.2464 702.507 32.7041C700.196 35.1618 697.062 36.3906 693.107 36.3906ZM693.107 31.5322C695.207 31.5322 696.851 30.751 698.039 29.1885C699.211 27.6423 699.797 25.4694 699.797 22.6699C699.797 19.8867 699.203 17.7139 698.015 16.1514C696.843 14.5889 695.207 13.8076 693.107 13.8076C691.024 13.8076 689.396 14.5889 688.225 16.1514C687.036 17.7139 686.442 19.8867 686.442 22.6699C686.442 25.4531 687.036 27.626 688.225 29.1885C689.396 30.751 691.024 31.5322 693.107 31.5322ZM722.643 14.0518V36H716.588V9.31543H734.581V14.0518H722.643ZM759.526 9.02246C762.928 9.02246 765.63 10.2513 767.632 12.709C769.634 15.1667 770.635 18.487 770.635 22.6699C770.635 26.8366 769.642 30.1488 767.656 32.6064C765.671 35.0641 762.993 36.293 759.624 36.293C755.669 36.293 752.878 34.7223 751.25 31.5811H751.128V44.5693H745.049V9.31543H750.981V13.8076H751.104C751.836 12.3428 752.959 11.179 754.473 10.3164C755.986 9.45378 757.671 9.02246 759.526 9.02246ZM757.744 31.2393C759.762 31.2393 761.374 30.4661 762.578 28.9199C763.799 27.3574 764.409 25.2741 764.409 22.6699C764.409 20.0658 763.799 17.9824 762.578 16.4199C761.374 14.8574 759.762 14.0762 757.744 14.0762C755.758 14.0762 754.155 14.8656 752.935 16.4443C751.714 18.0231 751.104 20.0983 751.104 22.6699C751.104 25.2415 751.714 27.3167 752.935 28.8955C754.155 30.458 755.758 31.2393 757.744 31.2393ZM790.868 31.6299C792.724 31.6299 794.27 31.109 795.507 30.0674C796.744 29.0257 797.362 27.6992 797.362 26.0879V24.0615L791.259 24.4521C787.873 24.68 786.181 25.9007 786.181 28.1143C786.181 29.1885 786.612 30.043 787.475 30.6777C788.321 31.3125 789.452 31.6299 790.868 31.6299ZM789.086 36.293C786.449 36.293 784.293 35.5605 782.616 34.0957C780.924 32.6309 780.077 30.7184 780.077 28.3584C780.077 25.9821 780.964 24.1266 782.738 22.792C784.496 21.4574 787.06 20.6842 790.429 20.4727L797.362 20.0576V18.1045C797.362 16.7048 796.907 15.6224 795.995 14.8574C795.1 14.1087 793.83 13.7344 792.187 13.7344C790.819 13.7344 789.672 14.0599 788.744 14.7109C787.816 15.362 787.247 16.2327 787.035 17.3232H781.42C781.501 14.8818 782.559 12.8717 784.594 11.293C786.645 9.73047 789.241 8.94922 792.382 8.94922C795.718 8.94922 798.38 9.74674 800.365 11.3418C802.367 12.9368 803.368 15.0609 803.368 17.7139V36H797.533V31.7031H797.387C796.654 33.1191 795.531 34.2422 794.018 35.0723C792.52 35.8861 790.876 36.293 789.086 36.293ZM827.752 13.7344C825.262 13.7995 823.3 14.6133 821.868 16.1758C820.403 17.7708 819.671 19.9355 819.671 22.6699C819.671 25.4043 820.395 27.5609 821.844 29.1396C823.292 30.7021 825.262 31.5241 827.752 31.6055V13.7344ZM841.668 22.6699C841.668 19.9355 840.936 17.7708 839.471 16.1758C838.038 14.6133 836.077 13.7995 833.587 13.7344V31.6055C836.061 31.5404 838.022 30.7184 839.471 29.1396C840.936 27.5446 841.668 25.388 841.668 22.6699ZM827.703 36.3662C823.374 36.2686 819.939 34.999 817.4 32.5576C814.829 30.0999 813.543 26.7959 813.543 22.6455C813.543 18.5277 814.837 15.2318 817.425 12.7578C819.98 10.3164 823.406 9.05501 827.703 8.97363V0.575195H833.636V8.97363C837.949 9.05501 841.383 10.3164 843.938 12.7578C846.51 15.2155 847.796 18.5195 847.796 22.6699C847.796 26.7878 846.502 30.0837 843.914 32.5576C841.342 35.0153 837.916 36.2848 833.636 36.3662V44.5693H827.703V36.3662ZM858.361 36V9.31543H864.318V27.333H864.514L876.525 9.31543H882.507V36H876.525V17.8604H876.33L864.318 36H858.361ZM917.071 36.5371C913.458 36.5371 910.545 35.4873 908.331 33.3877C906.118 31.2881 904.84 28.3665 904.498 24.623H900.25V36H894.195V9.31543H900.25V19.8867H904.571C905.06 16.4036 906.402 13.6855 908.6 11.7324C910.781 9.7793 913.604 8.80273 917.071 8.80273C920.994 8.80273 924.086 10.0316 926.349 12.4893C928.611 14.9469 929.742 18.3324 929.742 22.6455C929.742 26.9912 928.611 30.3929 926.349 32.8506C924.103 35.3083 921.01 36.5371 917.071 36.5371ZM917.047 31.5811C919.098 31.5811 920.693 30.7998 921.832 29.2373C922.955 27.6911 923.517 25.502 923.517 22.6699C923.517 19.8379 922.955 17.6406 921.832 16.0781C920.693 14.5319 919.098 13.7588 917.047 13.7588C914.996 13.7588 913.409 14.5319 912.286 16.0781C911.147 17.6406 910.577 19.8379 910.577 22.6699C910.577 25.502 911.139 27.6911 912.262 29.2373C913.385 30.7998 914.98 31.5811 917.047 31.5811ZM963.471 13.5146V20.2285H968.329C971.308 20.2285 972.797 19.0973 972.797 16.835C972.797 14.6214 971.47 13.5146 968.817 13.5146H963.471ZM963.471 24.1836V31.8008H969.232C972.325 31.8008 973.871 30.5394 973.871 28.0166C973.871 25.4613 972.146 24.1836 968.695 24.1836H963.471ZM957.514 9.31543H970.209C972.862 9.31543 974.953 9.91764 976.483 11.1221C977.997 12.3265 978.754 13.9867 978.754 16.1025C978.754 17.5023 978.306 18.7474 977.411 19.8379C976.532 20.9447 975.434 21.612 974.115 21.8398V22.0352C975.857 22.263 977.257 22.9466 978.314 24.0859C979.389 25.2415 979.926 26.6494 979.926 28.3096C979.926 30.6533 979.071 32.5169 977.362 33.9004C975.637 35.3001 973.31 36 970.38 36H957.514V9.31543ZM1000.31 31.6299C1002.16 31.6299 1003.71 31.109 1004.94 30.0674C1006.18 29.0257 1006.8 27.6992 1006.8 26.0879V24.0615L1000.7 24.4521C997.311 24.68 995.618 25.9007 995.618 28.1143C995.618 29.1885 996.049 30.043 996.912 30.6777C997.758 31.3125 998.89 31.6299 1000.31 31.6299ZM998.523 36.293C995.887 36.293 993.73 35.5605 992.054 34.0957C990.361 32.6309 989.515 30.7184 989.515 28.3584C989.515 25.9821 990.402 24.1266 992.176 22.792C993.934 21.4574 996.497 20.6842 999.866 20.4727L1006.8 20.0576V18.1045C1006.8 16.7048 1006.34 15.6224 1005.43 14.8574C1004.54 14.1087 1003.27 13.7344 1001.62 13.7344C1000.26 13.7344 999.109 14.0599 998.182 14.7109C997.254 15.362 996.684 16.2327 996.473 17.3232H990.857C990.939 14.8818 991.997 12.8717 994.031 11.293C996.082 9.73047 998.678 8.94922 1001.82 8.94922C1005.16 8.94922 1007.82 9.74674 1009.8 11.3418C1011.8 12.9368 1012.81 15.0609 1012.81 17.7139V36H1006.97V31.7031H1006.82C1006.09 33.1191 1004.97 34.2422 1003.46 35.0723C1001.96 35.8861 1000.31 36.293 998.523 36.293ZM1024.05 36V9.31543H1031.77L1039.8 28.1631H1040L1048.05 9.31543H1055.62V36H1049.81V17.7139H1049.62L1042 34.8037H1037.65L1030.04 17.7139H1029.84V36H1024.05Z" fill="white"/>
</svg>
