<svg width="1327" height="119" viewBox="0 0 1327 119" fill="none" xmlns="http://www.w3.org/2000/svg">
<path d="M24.9 1.99999C33.5 1.99999 39.7 3.99999 43.5 8C47.4 12 49.35 18.05 49.35 26.15V29.9C49.35 35.3 48.5 39.75 46.8 43.25C45.1 46.75 42.4 49.35 38.7 51.05C43.2 52.75 46.35 55.55 48.15 59.45C50.05 63.25 51 67.95 51 73.55V82.1C51 90.2 48.9 96.4 44.7 100.7C40.5 104.9 34.25 107 25.95 107H4.24683e-07V1.99999H24.9ZM16.5 59.75V92H25.95C28.75 92 30.85 91.25 32.25 89.75C33.75 88.25 34.5 85.55 34.5 81.65V72.5C34.5 67.6 33.65 64.25 31.95 62.45C30.35 60.65 27.65 59.75 23.85 59.75H16.5ZM16.5 17V44.75H22.95C26.05 44.75 28.45 43.95 30.15 42.35C31.95 40.75 32.85 37.85 32.85 33.65V27.8C32.85 24 32.15 21.25 30.75 19.55C29.45 17.85 27.35 17 24.45 17H16.5ZM97.691 1.99999C106.291 1.99999 112.491 3.99999 116.291 8C120.191 12 122.141 18.05 122.141 26.15V29.9C122.141 35.3 121.291 39.75 119.591 43.25C117.891 46.75 115.191 49.35 111.491 51.05C115.991 52.75 119.141 55.55 120.941 59.45C122.841 63.25 123.791 67.95 123.791 73.55V82.1C123.791 90.2 121.691 96.4 117.491 100.7C113.291 104.9 107.041 107 98.741 107H72.791V1.99999H97.691ZM89.291 59.75V92H98.741C101.541 92 103.641 91.25 105.041 89.75C106.541 88.25 107.291 85.55 107.291 81.65V72.5C107.291 67.6 106.441 64.25 104.741 62.45C103.141 60.65 100.441 59.75 96.641 59.75H89.291ZM89.291 17V44.75H95.741C98.841 44.75 101.241 43.95 102.941 42.35C104.741 40.75 105.641 37.85 105.641 33.65V27.8C105.641 24 104.941 21.25 103.541 19.55C102.241 17.85 100.141 17 97.241 17H89.291ZM162.082 46.25H184.732V61.25H162.082V92H190.582V107H145.582V1.99999H190.582V17H162.082V46.25ZM206.367 92C207.267 92.1 208.217 92.15 209.217 92.15C210.217 92.15 211.167 92.15 212.067 92.15C214.667 92.15 216.867 91.5 218.667 90.2C220.567 88.9 221.517 86.2 221.517 82.1V1.99999H273.717V92H282.117V119H265.317V107H223.167V119H206.367V92ZM238.017 80.9C238.017 85.3 237.567 89 236.667 92H257.217V17H238.017V80.9ZM317.782 107H300.832V1.99999H315.532V64.85L332.482 1.99999H353.182V107H338.332V30.95L317.782 107ZM372.639 1.99999H423.639V17H406.389V107H389.889V17H372.639V1.99999ZM459.691 46.25H482.341V61.25H459.691V92H488.191V107H443.191V1.99999H488.191V17H459.691V46.25ZM592.968 67.85V81.8C592.968 90.3 590.868 96.85 586.668 101.45C582.568 105.95 576.468 108.2 568.368 108.2C560.268 108.2 554.118 105.95 549.918 101.45C545.818 96.85 543.768 90.3 543.768 81.8V27.2C543.768 18.7 545.818 12.2 549.918 7.69999C554.118 3.1 560.268 0.799999 568.368 0.799999C576.468 0.799999 582.568 3.1 586.668 7.69999C590.868 12.2 592.968 18.7 592.968 27.2V37.4H577.368V26.15C577.368 22.35 576.568 19.7 574.968 18.2C573.468 16.6 571.418 15.8 568.818 15.8C566.218 15.8 564.118 16.6 562.518 18.2C561.018 19.7 560.268 22.35 560.268 26.15V82.85C560.268 86.65 561.018 89.3 562.518 90.8C564.118 92.3 566.218 93.05 568.818 93.05C571.418 93.05 573.468 92.3 574.968 90.8C576.568 89.3 577.368 86.65 577.368 82.85V67.85H592.968ZM640.322 1.99999C648.922 1.99999 655.122 3.99999 658.922 8C662.822 12 664.772 18.05 664.772 26.15V29.9C664.772 35.3 663.922 39.75 662.222 43.25C660.522 46.75 657.822 49.35 654.122 51.05C658.622 52.75 661.772 55.55 663.572 59.45C665.472 63.25 666.422 67.95 666.422 73.55V82.1C666.422 90.2 664.322 96.4 660.122 100.7C655.922 104.9 649.672 107 641.372 107H615.422V1.99999H640.322ZM631.922 59.75V92H641.372C644.172 92 646.272 91.25 647.672 89.75C649.172 88.25 649.922 85.55 649.922 81.65V72.5C649.922 67.6 649.072 64.25 647.372 62.45C645.772 60.65 643.072 59.75 639.272 59.75H631.922ZM631.922 17V44.75H638.372C641.472 44.75 643.872 43.95 645.572 42.35C647.372 40.75 648.272 37.85 648.272 33.65V27.8C648.272 24 647.572 21.25 646.172 19.55C644.872 17.85 642.772 17 639.872 17H631.922ZM703.213 82.85C703.213 86.65 703.963 89.35 705.463 90.95C707.063 92.45 709.163 93.2 711.763 93.2C714.363 93.2 716.413 92.45 717.913 90.95C719.513 89.35 720.313 86.65 720.313 82.85V26.15C720.313 22.35 719.513 19.7 717.913 18.2C716.413 16.6 714.363 15.8 711.763 15.8C709.163 15.8 707.063 16.6 705.463 18.2C703.963 19.7 703.213 22.35 703.213 26.15V82.85ZM686.713 27.2C686.713 18.7 688.863 12.2 693.163 7.69999C697.463 3.1 703.663 0.799999 711.763 0.799999C719.863 0.799999 726.063 3.1 730.363 7.69999C734.663 12.2 736.813 18.7 736.813 27.2V81.8C736.813 90.3 734.663 96.85 730.363 101.45C726.063 105.95 719.863 108.2 711.763 108.2C703.663 108.2 697.463 105.95 693.163 101.45C688.863 96.85 686.713 90.3 686.713 81.8V27.2ZM776.196 107H759.246V1.99999H773.946V64.85L790.896 1.99999H811.596V107H796.746V30.95L776.196 107ZM864.844 92C865.744 92.1 866.694 92.15 867.694 92.15C868.694 92.15 869.644 92.15 870.544 92.15C873.144 92.15 875.344 91.5 877.144 90.2C879.044 88.9 879.994 86.2 879.994 82.1V1.99999H932.194V92H940.594V119H923.794V107H881.644V119H864.844V92ZM896.494 80.9C896.494 85.3 896.044 89 895.144 92H915.694V17H896.494V80.9ZM1012.56 107H995.909L993.059 87.95H972.809L969.959 107H954.809L971.609 1.99999H995.759L1012.56 107ZM974.909 73.7H990.809L982.859 20.6L974.909 73.7ZM1048.6 107H1032.1V1.99999H1048.6V47H1067.35V1.99999H1084.15V107H1067.35V62H1048.6V107ZM1124.61 107H1108.11V1.99999H1124.61V47H1143.36V1.99999H1160.16V107H1143.36V62H1124.61V107ZM1208.43 92C1211.03 92 1213.03 91.3 1214.43 89.9C1215.83 88.5 1216.53 85.9 1216.53 82.1V66.35C1216.53 62.55 1215.83 59.95 1214.43 58.55C1213.03 57.15 1211.03 56.45 1208.43 56.45H1200.63V92H1208.43ZM1184.13 107V1.99999H1200.63V41.45H1208.43C1216.73 41.45 1222.88 43.65 1226.88 48.05C1230.98 52.45 1233.03 58.9 1233.03 67.4V81.05C1233.03 89.55 1230.98 96 1226.88 100.4C1222.88 104.8 1216.73 107 1208.43 107H1184.13ZM1241.13 1.99999H1257.63V107H1241.13V1.99999ZM1298.17 46.25H1320.82V61.25H1298.17V92H1326.67V107H1281.67V1.99999H1326.67V17H1298.17V46.25Z" fill="white"/>
</svg>
