<svg width="619" height="74" viewBox="0 0 619 74" fill="none" xmlns="http://www.w3.org/2000/svg">
<path d="M48.1402 18.3C48.1402 23.1667 46.6069 27.0333 43.5402 29.9C40.4736 32.7 36.3736 34.5 31.2402 35.3V35.7C37.2402 36.5 41.8069 38.3667 44.9402 41.3C48.0736 44.2333 49.6402 48.0667 49.6402 52.8C49.6402 59.0667 47.2402 64.1667 42.4402 68.1C37.6402 72.0333 30.4402 74 20.8402 74C16.9736 74 13.2736 73.7 9.74023 73.1C6.27357 72.5667 3.04023 71.5667 0.0402346 70.1V61.9C3.17357 63.3667 6.57357 64.5333 10.2402 65.4C13.9736 66.2 17.4736 66.6 20.7402 66.6C27.1402 66.6 31.9736 65.4 35.2402 63C38.5736 60.6 40.2402 57.2 40.2402 52.8C40.2402 48.2667 38.3069 44.9667 34.4402 42.9C30.5736 40.8333 25.1736 39.8 18.2402 39.8H8.04024V32.3H17.7402C24.8069 32.3 30.0736 31.1333 33.5402 28.8C37.0736 26.4 38.8402 23.2 38.8402 19.2C38.8402 15.6 37.5069 12.8333 34.8402 10.9C32.1736 8.96666 28.7069 8 24.4402 8C19.9736 8 16.2402 8.56666 13.2402 9.7C10.3069 10.8333 7.44023 12.3 4.64024 14.1L0.340234 8C3.14023 5.93333 6.57357 4.2 10.6402 2.8C14.7736 1.33333 19.4069 0.599996 24.5402 0.599996C32.2736 0.599996 38.1402 2.26666 42.1402 5.6C46.1402 8.93333 48.1402 13.1667 48.1402 18.3ZM129.529 73L120.929 50.9H92.6293L84.1293 73H75.0293L102.929 1.3H111.029L138.829 73H129.529ZM110.229 21.3C110.029 20.7667 109.696 19.8 109.229 18.4C108.763 17 108.296 15.5667 107.829 14.1C107.429 12.5667 107.096 11.4 106.829 10.6C106.363 12.6667 105.829 14.7 105.229 16.7C104.629 18.6333 104.129 20.1667 103.729 21.3L95.6293 42.9H118.229L110.229 21.3ZM208.896 1.6V9.6H177.596V73H168.596V1.6H208.896ZM259.938 1.6C269.271 1.6 276.071 3.43333 280.338 7.1C284.605 10.7667 286.738 15.9333 286.738 22.6C286.738 26.5333 285.838 30.2333 284.038 33.7C282.305 37.1 279.338 39.8667 275.138 42C271.005 44.1333 265.371 45.2 258.238 45.2H250.038V73H241.038V1.6H259.938ZM259.138 9.3H250.038V37.5H257.238C264.038 37.5 269.105 36.4 272.438 34.2C275.771 32 277.438 28.2667 277.438 23C277.438 18.4 275.971 14.9667 273.038 12.7C270.105 10.4333 265.471 9.3 259.138 9.3ZM351.485 52.7C349.351 57.4333 347.185 61.4 344.985 64.6C342.851 67.7333 340.318 70.1 337.385 71.7C334.451 73.2333 330.718 74 326.185 74C324.318 74 322.551 73.8667 320.885 73.6C319.285 73.3333 317.818 72.9667 316.485 72.5V63.6C317.818 64.2 319.251 64.7 320.785 65.1C322.318 65.4333 323.918 65.6 325.585 65.6C329.318 65.6 332.251 64.8 334.385 63.2C336.585 61.6 338.618 58.7667 340.485 54.7L312.985 1.6H322.885L342.785 40.9C343.118 41.5667 343.518 42.4333 343.985 43.5C344.451 44.5 344.851 45.4667 345.185 46.4H345.585C345.851 45.6667 346.185 44.8 346.585 43.8C346.985 42.7333 347.318 41.8667 347.585 41.2L364.785 1.6H374.285L351.485 52.7ZM446.187 18.3C446.187 23.1667 444.654 27.0333 441.587 29.9C438.52 32.7 434.42 34.5 429.287 35.3V35.7C435.287 36.5 439.854 38.3667 442.987 41.3C446.12 44.2333 447.687 48.0667 447.687 52.8C447.687 59.0667 445.287 64.1667 440.487 68.1C435.687 72.0333 428.487 74 418.887 74C415.02 74 411.32 73.7 407.787 73.1C404.32 72.5667 401.087 71.5667 398.087 70.1V61.9C401.22 63.3667 404.62 64.5333 408.287 65.4C412.02 66.2 415.52 66.6 418.787 66.6C425.187 66.6 430.02 65.4 433.287 63C436.62 60.6 438.287 57.2 438.287 52.8C438.287 48.2667 436.354 44.9667 432.487 42.9C428.62 40.8333 423.22 39.8 416.287 39.8H406.087V32.3H415.787C422.854 32.3 428.12 31.1333 431.587 28.8C435.12 26.4 436.887 23.2 436.887 19.2C436.887 15.6 435.554 12.8333 432.887 10.9C430.22 8.96666 426.754 8 422.487 8C418.02 8 414.287 8.56666 411.287 9.7C408.354 10.8333 405.487 12.3 402.687 14.1L398.387 8C401.187 5.93333 404.62 4.2 408.687 2.8C412.82 1.33333 417.454 0.599996 422.587 0.599996C430.32 0.599996 436.187 2.26666 440.187 5.6C444.187 8.93333 446.187 13.1667 446.187 18.3ZM534.876 73H524.076L491.776 36.8V73H482.776V1.6H491.776V36.2L523.276 1.6H533.476L502.476 36.3L534.876 73ZM609.393 73L600.793 50.9H572.493L563.993 73H554.893L582.793 1.3H590.893L618.693 73H609.393ZM590.093 21.3C589.893 20.7667 589.559 19.8 589.093 18.4C588.626 17 588.159 15.5667 587.693 14.1C587.293 12.5667 586.959 11.4 586.693 10.6C586.226 12.6667 585.693 14.7 585.093 16.7C584.493 18.6333 583.993 20.1667 583.593 21.3L575.493 42.9H598.093L590.093 21.3Z" fill="#535353"/>
</svg>
