<svg width="1599" height="1068" viewBox="0 0 1599 1068" fill="none" xmlns="http://www.w3.org/2000/svg">
<path d="M46.1094 686.416C36.0508 686.416 28.0755 683.128 22.1836 676.553C16.2917 669.977 13.3457 661.042 13.3457 649.746C13.3457 638.516 16.3079 629.596 22.2324 622.988C28.1243 616.413 36.0833 613.125 46.1094 613.125C54.0521 613.125 60.8066 615.355 66.373 619.814C71.9395 624.307 75.2435 630.166 76.2852 637.393H63.7852C62.7435 633.356 60.6113 630.117 57.3887 627.676C54.1986 625.267 50.4388 624.062 46.1094 624.062C40.0547 624.062 35.2207 626.374 31.6074 630.996C27.9941 635.651 26.1875 641.901 26.1875 649.746C26.1875 657.656 27.9779 663.923 31.5586 668.545C35.1719 673.167 40.0384 675.479 46.1582 675.479C50.5853 675.479 54.3613 674.404 57.4863 672.256C60.5788 670.075 62.6947 667.048 63.834 663.174H76.334C74.9668 670.433 71.6139 676.113 66.2754 680.215C60.9043 684.349 54.1823 686.416 46.1094 686.416ZM187.582 685V625.234H154.184V685H141.537V614.541H200.131V685H187.582ZM275.457 685H229.852V614.541H275.457V625.186H242.449V644.229H273.65V654.238H242.449V674.355H275.457V685ZM303.762 685V614.541H333.596C340.008 614.541 345.119 616.136 348.928 619.326C352.736 622.516 354.641 626.781 354.641 632.119C354.641 635.895 353.404 639.248 350.93 642.178C348.456 645.107 345.412 646.865 341.799 647.451V647.842C346.617 648.298 350.539 650.104 353.566 653.262C356.594 656.419 358.107 660.326 358.107 664.98C358.107 671.198 355.959 676.081 351.662 679.629C347.333 683.21 341.408 685 333.889 685H303.762ZM316.359 644.229H328.469C332.863 644.229 336.249 643.333 338.625 641.543C341.001 639.785 342.189 637.262 342.189 633.975C342.189 630.915 341.164 628.538 339.113 626.846C337.095 625.186 334.214 624.355 330.471 624.355H316.359V644.229ZM331.008 675.186C340.48 675.186 345.217 671.491 345.217 664.102C345.217 656.81 340.318 653.164 330.52 653.164H316.359V675.186H331.008ZM440.709 698.916V685H384.752V614.541H397.35V674.404H430.797V614.541H443.346V674.404H452.135V698.916H440.709ZM508.223 613.369C518.477 613.369 526.615 616.641 532.637 623.184C538.626 629.727 541.621 638.597 541.621 649.795C541.621 660.993 538.626 669.863 532.637 676.406C526.615 682.917 518.477 686.172 508.223 686.172C497.936 686.172 489.798 682.917 483.809 676.406C477.786 669.863 474.775 660.993 474.775 649.795C474.775 638.597 477.786 629.727 483.809 623.184C489.798 616.641 497.936 613.369 508.223 613.369ZM508.223 624.111C501.94 624.111 496.943 626.423 493.232 631.045C489.521 635.667 487.666 641.917 487.666 649.795C487.666 657.64 489.521 663.874 493.232 668.496C496.943 673.118 501.94 675.43 508.223 675.43C514.505 675.43 519.502 673.118 523.213 668.496C526.924 663.874 528.779 657.64 528.779 649.795C528.779 641.95 526.924 635.7 523.213 631.045C519.502 626.423 514.505 624.111 508.223 624.111ZM641.557 685H630.229V635H629.887L609.525 684.414H600.932L580.57 635H580.229V685H568.852V614.541H583.451L605.033 667.715H605.424L627.006 614.541H641.557V685ZM757.443 634.316H756.809L722.58 685H710.373V614.541H722.922V665.371H723.557L757.736 614.541H769.943V685H757.443V634.316ZM844.098 685V625.137H821.686L819.781 657.705C819.228 667.113 817.421 674.046 814.361 678.506C811.171 683.193 806.37 685.537 799.957 685.537C798.134 685.537 796.604 685.342 795.367 684.951V673.916C796.344 674.144 797.353 674.258 798.395 674.258C801.617 674.258 803.977 672.842 805.475 670.01C806.907 667.34 807.786 662.995 808.111 656.973L810.406 614.541H856.695V685H844.098ZM933.877 634.316H933.242L899.014 685H886.807V614.541H899.355V665.371H899.99L934.17 614.541H946.377V685H933.877V634.316ZM1054.6 666.787H1028.67L1022.66 685H1009.68L1034.68 614.541H1048.88L1073.88 685H1060.6L1054.6 666.787ZM1031.6 657.07H1051.62L1041.8 626.992H1041.46L1031.6 657.07ZM1156.58 685H1140.47L1111.76 652.871H1111.37V685H1098.77V614.541H1111.37V645.352H1111.76L1139.35 614.541H1153.9L1123.72 648.037L1156.58 685ZM1197.68 685V625.186H1176.29V614.541H1231.67V625.186H1210.28V685H1197.68ZM1303.28 685H1257.68V614.541H1303.28V625.186H1270.27V644.229H1301.47V654.238H1270.27V674.355H1303.28V685ZM1360 614.541C1367 614.541 1372.7 616.706 1377.09 621.035C1381.49 625.43 1383.69 631.126 1383.69 638.125C1383.69 645.124 1381.44 650.804 1376.95 655.166C1372.46 659.528 1366.63 661.709 1359.47 661.709H1344.18V685H1331.59V614.541H1360ZM1344.18 651.553H1356.63C1361.16 651.553 1364.66 650.381 1367.13 648.037C1369.64 645.693 1370.89 642.389 1370.89 638.125C1370.89 633.893 1369.66 630.622 1367.18 628.311C1364.71 625.999 1361.21 624.844 1356.68 624.844H1344.18V651.553ZM1441.24 613.369C1451.49 613.369 1459.63 616.641 1465.65 623.184C1471.64 629.727 1474.64 638.597 1474.64 649.795C1474.64 660.993 1471.64 669.863 1465.65 676.406C1459.63 682.917 1451.49 686.172 1441.24 686.172C1430.95 686.172 1422.81 682.917 1416.82 676.406C1410.8 669.863 1407.79 660.993 1407.79 649.795C1407.79 638.597 1410.8 629.727 1416.82 623.184C1422.81 616.641 1430.95 613.369 1441.24 613.369ZM1441.24 624.111C1434.96 624.111 1429.96 626.423 1426.25 631.045C1422.54 635.667 1420.68 641.917 1420.68 649.795C1420.68 657.64 1422.54 663.874 1426.25 668.496C1429.96 673.118 1434.96 675.43 1441.24 675.43C1447.52 675.43 1452.52 673.118 1456.23 668.496C1459.94 663.874 1461.79 657.64 1461.79 649.795C1461.79 641.95 1459.94 635.7 1456.23 631.045C1452.52 626.423 1447.52 624.111 1441.24 624.111ZM1574.57 685H1563.24V635H1562.9L1542.54 684.414H1533.95L1513.59 635H1513.24V685H1501.87V614.541H1516.47L1538.05 667.715H1538.44L1560.02 614.541H1574.57V685Z" fill="white"/>
<path d="M90.574 458.967V482.496C90.574 496.833 87.032 507.88 79.948 515.639C73.0327 523.229 62.744 527.024 49.082 527.024C35.42 527.024 25.047 523.229 17.963 515.639C11.0477 507.88 7.59 496.833 7.59 482.496V390.404C7.59 376.067 11.0477 365.104 17.963 357.514C25.047 349.755 35.42 345.876 49.082 345.876C62.744 345.876 73.0327 349.755 79.948 357.514C87.032 365.104 90.574 376.067 90.574 390.404V407.608H64.262V388.633C64.262 382.224 62.9127 377.754 60.214 375.224C57.684 372.525 54.2263 371.176 49.841 371.176C45.4557 371.176 41.9137 372.525 39.215 375.224C36.685 377.754 35.42 382.224 35.42 388.633V484.267C35.42 490.676 36.685 495.146 39.215 497.676C41.9137 500.206 45.4557 501.471 49.841 501.471C54.2263 501.471 57.684 500.206 60.214 497.676C62.9127 495.146 64.262 490.676 64.262 484.267V458.967H90.574ZM156.53 493.881H143.374C129.375 493.881 118.917 490.17 112.002 482.749C105.255 475.328 101.882 464.449 101.882 450.112V401.789C101.882 387.452 105.255 376.573 112.002 369.152C118.917 361.731 129.375 358.02 143.374 358.02H156.53V347.9H184.36V358.02H197.516C211.515 358.02 221.888 361.731 228.635 369.152C235.55 376.573 239.008 387.452 239.008 401.789V450.112C239.008 464.449 235.55 475.328 228.635 482.749C221.888 490.17 211.515 493.881 197.516 493.881H184.36V525H156.53V493.881ZM184.36 383.32V468.581H197.516C201.901 468.581 205.275 467.4 207.636 465.039C209.997 462.678 211.178 458.292 211.178 451.883V400.018C211.178 393.609 209.997 389.223 207.636 386.862C205.275 384.501 201.901 383.32 197.516 383.32H184.36ZM143.374 383.32C138.989 383.32 135.615 384.501 133.254 386.862C130.893 389.223 129.712 393.609 129.712 400.018V451.883C129.712 458.292 130.893 462.678 133.254 465.039C135.615 467.4 138.989 468.581 143.374 468.581H156.53V383.32H143.374ZM278.29 484.267C278.29 490.676 279.555 495.23 282.085 497.929C284.784 500.459 288.326 501.724 292.711 501.724C297.096 501.724 300.554 500.459 303.084 497.929C305.783 495.23 307.132 490.676 307.132 484.267V388.633C307.132 382.224 305.783 377.754 303.084 375.224C300.554 372.525 297.096 371.176 292.711 371.176C288.326 371.176 284.784 372.525 282.085 375.224C279.555 377.754 278.29 382.224 278.29 388.633V484.267ZM250.46 390.404C250.46 376.067 254.086 365.104 261.339 357.514C268.592 349.755 279.049 345.876 292.711 345.876C306.373 345.876 316.83 349.755 324.083 357.514C331.336 365.104 334.962 376.067 334.962 390.404V482.496C334.962 496.833 331.336 507.88 324.083 515.639C316.83 523.229 306.373 527.024 292.711 527.024C279.049 527.024 268.592 523.229 261.339 515.639C254.086 507.88 250.46 496.833 250.46 482.496V390.404ZM344.969 347.9H430.989V373.2H401.894V525H374.064V373.2H344.969V347.9ZM469.028 484.267C469.028 490.676 470.293 495.23 472.823 497.929C475.522 500.459 479.064 501.724 483.449 501.724C487.835 501.724 491.292 500.459 493.822 497.929C496.521 495.23 497.87 490.676 497.87 484.267V388.633C497.87 382.224 496.521 377.754 493.822 375.224C491.292 372.525 487.835 371.176 483.449 371.176C479.064 371.176 475.522 372.525 472.823 375.224C470.293 377.754 469.028 382.224 469.028 388.633V484.267ZM441.198 390.404C441.198 376.067 444.825 365.104 452.077 357.514C459.33 349.755 469.787 345.876 483.449 345.876C497.111 345.876 507.569 349.755 514.821 357.514C522.074 365.104 525.7 376.067 525.7 390.404V482.496C525.7 496.833 522.074 507.88 514.821 515.639C507.569 523.229 497.111 527.024 483.449 527.024C469.787 527.024 459.33 523.229 452.077 515.639C444.825 507.88 441.198 496.833 441.198 482.496V390.404ZM571.128 525H543.298V347.9H616.921V373.2H571.128V525ZM670.511 347.9C684.511 347.9 694.884 351.611 701.63 359.032C708.546 366.453 712.003 377.332 712.003 391.669V414.692C712.003 429.029 708.546 439.908 701.63 447.329C694.884 454.75 684.511 458.461 670.511 458.461H657.355V525H629.525V347.9H670.511ZM657.355 373.2V433.161H670.511C674.897 433.161 678.27 431.98 680.631 429.619C682.993 427.258 684.173 422.872 684.173 416.463V389.898C684.173 383.489 682.993 379.103 680.631 376.742C678.27 374.381 674.897 373.2 670.511 373.2H657.355ZM814.462 525H786.379L781.572 492.869H747.417L742.61 525H717.057L745.393 347.9H786.126L814.462 525ZM750.959 468.834H777.777L764.368 379.272L750.959 468.834ZM875.505 493.881H862.349C848.349 493.881 837.892 490.17 830.977 482.749C824.23 475.328 820.857 464.449 820.857 450.112V401.789C820.857 387.452 824.23 376.573 830.977 369.152C837.892 361.731 848.349 358.02 862.349 358.02H875.505V347.9H903.335V358.02H916.491C930.49 358.02 940.863 361.731 947.61 369.152C954.525 376.573 957.983 387.452 957.983 401.789V450.112C957.983 464.449 954.525 475.328 947.61 482.749C940.863 490.17 930.49 493.881 916.491 493.881H903.335V525H875.505V493.881ZM903.335 383.32V468.581H916.491C920.876 468.581 924.249 467.4 926.611 465.039C928.972 462.678 930.153 458.292 930.153 451.883V400.018C930.153 393.609 928.972 389.223 926.611 386.862C924.249 384.501 920.876 383.32 916.491 383.32H903.335ZM862.349 383.32C857.963 383.32 854.59 384.501 852.229 386.862C849.867 389.223 848.687 393.609 848.687 400.018V451.883C848.687 458.292 849.867 462.678 852.229 465.039C854.59 467.4 857.963 468.581 862.349 468.581H875.505V383.32H862.349ZM1000.55 525H971.965V347.9H996.759V453.907L1025.35 347.9H1060.26V525H1035.21V396.729L1000.55 525ZM1121.41 347.9C1135.41 347.9 1145.79 351.611 1152.53 359.032C1159.45 366.453 1162.91 377.332 1162.91 391.669V414.692C1162.91 429.029 1159.45 439.908 1152.53 447.329C1145.79 454.75 1135.41 458.461 1121.41 458.461H1108.26V525H1080.43V347.9H1121.41ZM1108.26 373.2V433.161H1121.41C1125.8 433.161 1129.17 431.98 1131.53 429.619C1133.9 427.258 1135.08 422.872 1135.08 416.463V389.898C1135.08 383.489 1133.9 379.103 1131.53 376.742C1129.17 374.381 1125.8 373.2 1121.41 373.2H1108.26ZM1183.14 499.7C1184.66 499.869 1186.26 499.953 1187.95 499.953C1189.63 499.953 1191.24 499.953 1192.75 499.953C1194.95 499.953 1196.97 499.7 1198.83 499.194C1200.85 498.688 1202.54 497.76 1203.89 496.411C1205.4 495.062 1206.5 493.122 1207.18 490.592C1208.02 488.062 1208.44 484.857 1208.44 480.978L1167.96 347.9H1195.79L1226.4 451.63L1251.7 347.9H1279.53L1243.1 478.448C1239.9 490.592 1236.61 499.953 1233.23 506.531C1230.03 512.94 1226.57 517.579 1222.86 520.446C1219.15 523.145 1215.1 524.663 1210.72 525C1206.5 525.337 1201.78 525.506 1196.55 525.506C1194.02 525.506 1191.74 525.506 1189.72 525.506C1187.69 525.506 1185.5 525.337 1183.14 525V499.7ZM1320.76 525H1292.17V347.9H1316.96V453.907L1345.55 347.9H1380.46V525H1355.42V396.729L1320.76 525ZM1367.31 317.287V338.033H1306.08V317.287H1367.31ZM1481.09 458.967V482.496C1481.09 496.833 1477.54 507.88 1470.46 515.639C1463.54 523.229 1453.26 527.024 1439.59 527.024C1425.93 527.024 1415.56 523.229 1408.47 515.639C1401.56 507.88 1398.1 496.833 1398.1 482.496V390.404C1398.1 376.067 1401.56 365.104 1408.47 357.514C1415.56 349.755 1425.93 345.876 1439.59 345.876C1453.26 345.876 1463.54 349.755 1470.46 357.514C1477.54 365.104 1481.09 376.067 1481.09 390.404V407.608H1454.77V388.633C1454.77 382.224 1453.42 377.754 1450.73 375.224C1448.2 372.525 1444.74 371.176 1440.35 371.176C1435.97 371.176 1432.43 372.525 1429.73 375.224C1427.2 377.754 1425.93 382.224 1425.93 388.633V484.267C1425.93 490.676 1427.2 495.146 1429.73 497.676C1432.43 500.206 1435.97 501.471 1440.35 501.471C1444.74 501.471 1448.2 500.206 1450.73 497.676C1453.42 495.146 1454.77 490.676 1454.77 484.267V458.967H1481.09ZM1538.95 373.2C1534.05 373.2 1530.43 374.634 1528.07 377.501C1525.87 380.368 1524.78 385.007 1524.78 391.416V408.873C1524.78 415.957 1526.21 420.848 1529.08 423.547C1532.11 426.246 1536.25 427.595 1541.48 427.595H1552.35V373.2H1538.95ZM1493.66 525C1495.01 521.627 1495.85 518.338 1496.19 515.133C1496.53 511.76 1496.69 507.88 1496.69 503.495V476.171C1496.69 466.894 1497.96 459.051 1500.49 452.642C1503.19 446.064 1508.08 441.341 1515.16 438.474C1503.02 432.739 1496.95 420.764 1496.95 402.548V388.633C1496.95 374.971 1500.15 364.767 1506.56 358.02C1513.14 351.273 1523.68 347.9 1538.19 347.9H1580.18V525H1552.35V452.895H1542.74C1536.33 452.895 1531.69 454.582 1528.83 457.955C1525.96 461.328 1524.52 467.147 1524.52 475.412V503.242C1524.52 506.784 1524.44 509.736 1524.27 512.097C1524.27 514.458 1524.1 516.398 1523.77 517.916C1523.6 519.434 1523.34 520.699 1523.01 521.711C1522.67 522.723 1522.33 523.819 1521.99 525H1493.66Z" fill="white"/>
<path d="M867.95 847.439H881.106C895.105 847.439 905.478 851.15 912.225 858.571C919.14 865.992 922.598 876.871 922.598 891.208V914.231C922.598 928.568 919.14 939.447 912.225 946.868C905.478 954.289 895.105 958 881.106 958H840.12V780.9H913.743V806.2H867.95V847.439ZM881.106 932.7C885.491 932.7 888.865 931.519 891.226 929.158C893.587 926.797 894.768 922.411 894.768 916.002V889.437C894.768 883.028 893.587 878.642 891.226 876.281C888.865 873.92 885.491 872.739 881.106 872.739H867.95V932.7H881.106ZM967.537 958H938.948V780.9H963.742V886.907L992.331 780.9H1027.25V958H1002.2V829.729L967.537 958ZM1125.59 932.7H1148.11V780.9H1176.19V958H1047.41V780.9H1074.99V932.7H1097.76V780.9H1125.59V932.7ZM1232.83 887.413L1224.23 903.605V958H1196.4V780.9H1224.23V858.065L1261.16 780.9H1288.49L1249.78 859.836L1288.49 958H1259.9L1232.83 887.413ZM1328.98 855.535H1367.19V880.835H1328.98V932.7H1377.05V958H1301.15V780.9H1377.05V806.2H1328.98V855.535ZM1429.99 887.413L1421.39 903.605V958H1393.56V780.9H1421.39V858.065L1458.33 780.9H1485.65L1446.94 859.836L1485.65 958H1457.06L1429.99 887.413ZM1588.13 958H1560.05L1555.24 925.869H1521.09L1516.28 958H1490.73L1519.06 780.9H1559.79L1588.13 958ZM1524.63 901.834H1551.45L1538.04 812.272L1524.63 901.834Z" fill="#D39742"/>
<path d="M108.991 20.8C124.591 21.2 136.991 23.9333 146.191 29C155.524 33.9333 162.191 40.3333 166.191 48.2C170.324 56.0667 172.391 64.6667 172.391 74C172.391 80 171.324 86.1333 169.191 92.4C167.191 98.6667 163.724 104.467 158.791 109.8C153.991 115 147.524 119.267 139.391 122.6C131.257 125.933 121.124 127.733 108.991 128V150H81.7906V128C69.524 127.733 59.2573 125.933 50.9906 122.6C42.8573 119.267 36.3906 114.933 31.5906 109.6C26.7906 104.267 23.3906 98.5333 21.3906 92.4C19.3906 86.1333 18.3906 80 18.3906 74C18.3906 64.6667 20.3906 56.0667 24.3906 48.2C28.524 40.3333 35.1906 33.9333 44.3906 29C53.724 23.9333 66.1906 21.2 81.7906 20.8V3.19999H108.991V20.8ZM81.7906 44.4C68.8573 44.9333 59.7906 47.9333 54.5906 53.4C49.3906 58.7333 46.7906 65.5333 46.7906 73.8C46.7906 82.7333 49.5906 90 55.1906 95.6C60.7906 101.067 69.6573 104.067 81.7906 104.6V44.4ZM108.991 104.6C121.257 104.067 130.124 101.067 135.591 95.6C141.191 90 143.991 82.7333 143.991 73.8C143.991 65.5333 141.391 58.7333 136.191 53.4C131.124 47.9333 122.057 44.9333 108.991 44.4V104.6ZM329.061 76.4C329.061 91.2 326.594 104.133 321.661 115.2C316.861 126.133 309.461 134.667 299.461 140.8C289.461 146.933 276.661 150 261.061 150C245.594 150 232.794 146.933 222.661 140.8C212.661 134.667 205.194 126.067 200.261 115C195.461 103.933 193.061 91 193.061 76.2C193.061 61.4 195.461 48.5333 200.261 37.6C205.194 26.6667 212.661 18.2 222.661 12.2C232.794 6.06666 245.661 3 261.261 3C276.728 3 289.461 6.06666 299.461 12.2C309.461 18.2 316.861 26.7333 321.661 37.8C326.594 48.7333 329.061 61.6 329.061 76.4ZM224.861 76.4C224.861 91.3333 227.728 103.133 233.461 111.8C239.194 120.333 248.394 124.6 261.061 124.6C273.994 124.6 283.261 120.333 288.861 111.8C294.461 103.133 297.261 91.3333 297.261 76.4C297.261 61.3333 294.461 49.5333 288.861 41C283.261 32.4667 274.061 28.2 261.261 28.2C248.461 28.2 239.194 32.4667 233.461 41C227.728 49.5333 224.861 61.3333 224.861 76.4ZM407.586 148H377.386V30.4H338.586V5.19999H446.386V30.4H407.586V148ZM594.1 76.4C594.1 91.2 591.633 104.133 586.7 115.2C581.9 126.133 574.5 134.667 564.5 140.8C554.5 146.933 541.7 150 526.1 150C510.633 150 497.833 146.933 487.7 140.8C477.7 134.667 470.233 126.067 465.3 115C460.5 103.933 458.1 91 458.1 76.2C458.1 61.4 460.5 48.5333 465.3 37.6C470.233 26.6667 477.7 18.2 487.7 12.2C497.833 6.06666 510.7 3 526.3 3C541.767 3 554.5 6.06666 564.5 12.2C574.5 18.2 581.9 26.7333 586.7 37.8C591.633 48.7333 594.1 61.6 594.1 76.4ZM489.9 76.4C489.9 91.3333 492.767 103.133 498.5 111.8C504.233 120.333 513.433 124.6 526.1 124.6C539.033 124.6 548.3 120.333 553.9 111.8C559.5 103.133 562.3 91.3333 562.3 76.4C562.3 61.3333 559.5 49.5333 553.9 41C548.3 32.4667 539.1 28.2 526.3 28.2C513.5 28.2 504.233 32.4667 498.5 41C492.767 49.5333 489.9 61.3333 489.9 76.4ZM720.327 38.6C720.327 48.2 716.927 55.9333 710.127 61.8C703.327 67.6667 694.66 71.3333 684.127 72.8V73.4C697.193 74.7333 707.193 78.4 714.127 84.4C721.193 90.2667 724.727 97.9333 724.727 107.4C724.727 119.933 719.593 130.2 709.327 138.2C699.193 146.067 684.26 150 664.527 150C653.727 150 644.127 149.333 635.727 148C627.46 146.667 620.26 144.733 614.127 142.2V116.8C618.26 118.8 622.927 120.533 628.127 122C633.327 123.333 638.593 124.4 643.927 125.2C649.26 125.867 654.193 126.2 658.727 126.2C671.393 126.2 680.527 124.4 686.127 120.8C691.86 117.067 694.727 111.867 694.727 105.2C694.727 98.4 690.593 93.4667 682.327 90.4C674.06 87.2 662.927 85.6 648.927 85.6H635.527V62H647.527C658.86 62 667.66 61.2667 673.927 59.8C680.193 58.3333 684.593 56.2 687.127 53.4C689.66 50.6 690.927 47.2667 690.927 43.4C690.927 38.4667 688.727 34.6 684.327 31.8C680.06 28.8667 673.593 27.4 664.927 27.4C657.593 27.4 650.66 28.4667 644.127 30.6C637.727 32.7333 631.727 35.5333 626.127 39L612.927 18.8C620.26 14 628.393 10.2 637.327 7.4C646.26 4.59999 656.86 3.19999 669.127 3.19999C685.26 3.19999 697.793 6.53333 706.727 13.2C715.793 19.8667 720.327 28.3333 720.327 38.6ZM881.014 76.4C881.014 91.2 878.547 104.133 873.614 115.2C868.814 126.133 861.414 134.667 851.414 140.8C841.414 146.933 828.614 150 813.014 150C797.547 150 784.747 146.933 774.614 140.8C764.614 134.667 757.147 126.067 752.214 115C747.414 103.933 745.014 91 745.014 76.2C745.014 61.4 747.414 48.5333 752.214 37.6C757.147 26.6667 764.614 18.2 774.614 12.2C784.747 6.06666 797.614 3 813.214 3C828.681 3 841.414 6.06666 851.414 12.2C861.414 18.2 868.814 26.7333 873.614 37.8C878.547 48.7333 881.014 61.6 881.014 76.4ZM776.814 76.4C776.814 91.3333 779.681 103.133 785.414 111.8C791.147 120.333 800.347 124.6 813.014 124.6C825.947 124.6 835.214 120.333 840.814 111.8C846.414 103.133 849.214 91.3333 849.214 76.4C849.214 61.3333 846.414 49.5333 840.814 41C835.214 32.4667 826.014 28.2 813.214 28.2C800.414 28.2 791.147 32.4667 785.414 41C779.681 49.5333 776.814 61.3333 776.814 76.4ZM1027.59 148H997.394V86.4H940.794V148H910.594V5.19999H940.794V61.2H997.394V5.19999H1027.59V148ZM1150.92 148L1140.52 114H1088.52L1078.12 148H1045.52L1095.92 4.6H1132.92L1183.52 148H1150.92ZM1122.92 55.4C1122.26 53.1333 1121.39 50.2667 1120.32 46.8C1119.26 43.3333 1118.19 39.8 1117.12 36.2C1116.06 32.6 1115.19 29.4667 1114.52 26.8C1113.86 29.4667 1112.92 32.8 1111.72 36.8C1110.66 40.6667 1109.59 44.4 1108.52 48C1107.59 51.4667 1106.86 53.9333 1106.32 55.4L1096.12 88.6H1133.32L1122.92 55.4Z" fill="#D39742"/>
</svg>
