<svg width="656" height="75" viewBox="0 0 656 75" fill="none" xmlns="http://www.w3.org/2000/svg">
<path d="M0.48125 58V0.879996H45.6813V58H33.6013V10.96H12.5613V58H0.48125ZM86.3306 0.879996C93.6906 0.879996 99.0506 2.48 102.411 5.68C105.824 8.82666 107.531 13.1733 107.531 18.72C107.531 22.0267 106.837 25.1467 105.451 28.08C104.064 30.96 101.744 33.28 98.4906 35.04C95.2906 36.8 90.9173 37.68 85.3706 37.68H80.1706V58H68.0906V0.879996H86.3306ZM85.6906 10.8H80.1706V27.76H84.1706C87.584 27.76 90.2773 27.0933 92.2506 25.76C94.2773 24.3733 95.2906 22.16 95.2906 19.12C95.2906 13.5733 92.0906 10.8 85.6906 10.8ZM178.165 29.36C178.165 35.28 177.178 40.4533 175.205 44.88C173.285 49.2533 170.325 52.6667 166.325 55.12C162.325 57.5733 157.205 58.8 150.965 58.8C144.778 58.8 139.658 57.5733 135.605 55.12C131.605 52.6667 128.618 49.2267 126.645 44.8C124.725 40.3733 123.765 35.2 123.765 29.28C123.765 23.36 124.725 18.2133 126.645 13.84C128.618 9.46667 131.605 6.08 135.605 3.68C139.658 1.22666 144.805 -1.90735e-06 151.045 -1.90735e-06C157.232 -1.90735e-06 162.325 1.22666 166.325 3.68C170.325 6.08 173.285 9.49333 175.205 13.92C177.178 18.2933 178.165 23.44 178.165 29.36ZM136.485 29.36C136.485 35.3333 137.632 40.0533 139.925 43.52C142.218 46.9333 145.898 48.64 150.965 48.64C156.138 48.64 159.845 46.9333 162.085 43.52C164.325 40.0533 165.445 35.3333 165.445 29.36C165.445 23.3333 164.325 18.6133 162.085 15.2C159.845 11.7867 156.165 10.08 151.045 10.08C145.925 10.08 142.218 11.7867 139.925 15.2C137.632 18.6133 136.485 23.3333 136.485 29.36ZM241.154 0.879996V47.92H248.754V74.64H237.074V58H201.314V74.64H189.634V47.92H194.034C196.061 43.92 197.954 39.6533 199.714 35.12C201.474 30.5333 203.048 25.44 204.434 19.84C205.874 14.24 207.021 7.92 207.874 0.879996H241.154ZM217.474 10.96C216.994 14.64 216.221 18.64 215.154 22.96C214.141 27.2267 212.914 31.52 211.474 35.84C210.034 40.1067 208.461 44.1333 206.754 47.92H229.074V10.96H217.474ZM317.368 29.36C317.368 35.28 316.381 40.4533 314.408 44.88C312.488 49.2533 309.528 52.6667 305.528 55.12C301.528 57.5733 296.408 58.8 290.168 58.8C283.981 58.8 278.861 57.5733 274.808 55.12C270.808 52.6667 267.821 49.2267 265.848 44.8C263.928 40.3733 262.968 35.2 262.968 29.28C262.968 23.36 263.928 18.2133 265.848 13.84C267.821 9.46667 270.808 6.08 274.808 3.68C278.861 1.22666 284.008 -1.90735e-06 290.248 -1.90735e-06C296.435 -1.90735e-06 301.528 1.22666 305.528 3.68C309.528 6.08 312.488 9.49333 314.408 13.92C316.381 18.2933 317.368 23.44 317.368 29.36ZM275.688 29.36C275.688 35.3333 276.835 40.0533 279.128 43.52C281.421 46.9333 285.101 48.64 290.168 48.64C295.341 48.64 299.048 46.9333 301.288 43.52C303.528 40.0533 304.648 35.3333 304.648 29.36C304.648 23.3333 303.528 18.6133 301.288 15.2C299.048 11.7867 295.368 10.08 290.248 10.08C285.128 10.08 281.421 11.7867 279.128 15.2C276.835 18.6133 275.688 23.3333 275.688 29.36ZM380.838 58H368.758V10.96H354.758C354.438 13.4133 354.091 16.08 353.718 18.96C353.398 21.84 353.024 24.7733 352.598 27.76C352.224 30.6933 351.824 33.4933 351.398 36.16C350.971 38.7733 350.544 41.0933 350.118 43.12C349.424 46.4267 348.491 49.2533 347.318 51.6C346.198 53.9467 344.624 55.7333 342.598 56.96C340.624 58.1867 338.038 58.8 334.838 58.8C332.758 58.8 330.838 58.5067 329.078 57.92V48C329.771 48.2133 330.438 48.4 331.077 48.56C331.771 48.72 332.518 48.8 333.318 48.8C334.864 48.8 336.038 48 336.838 46.4C337.691 44.7467 338.544 41.68 339.398 37.2C339.718 35.4933 340.171 32.8267 340.758 29.2C341.344 25.5733 341.984 21.3333 342.678 16.48C343.424 11.5733 344.118 6.37333 344.758 0.879996H380.838V58ZM416.367 28.32L397.167 0.879996H409.647L428.127 28.56V0.879996H439.407V28.56L457.887 0.879996H470.367L451.167 28.32L471.487 58H458.527L439.407 29.04V58H428.127V29.04L409.007 58H396.047L416.367 28.32ZM486.716 0.879996H497.596V28.48C497.596 29.8133 497.569 31.3067 497.516 32.96C497.462 34.6133 497.409 36.24 497.356 37.84C497.302 39.3867 497.249 40.7467 497.196 41.92C497.142 43.04 497.089 43.8133 497.036 44.24H497.276L523.676 0.879996H538.156V58H527.356V30.56C527.356 29.12 527.382 27.5467 527.436 25.84C527.489 24.08 527.542 22.4 527.596 20.8C527.702 19.2 527.782 17.8133 527.836 16.64C527.942 15.4133 528.022 14.6133 528.076 14.24H527.756L501.276 58H486.716V0.879996ZM582.575 58H570.495V10.96H554.975V0.879996H598.095V10.96H582.575V58ZM614.903 58V0.879996H626.983V22.8H631.783C637.17 22.8 641.57 23.5467 644.983 25.04C648.45 26.5333 651.01 28.5867 652.663 31.2C654.316 33.8133 655.143 36.8 655.143 40.16C655.143 45.8133 653.25 50.2133 649.463 53.36C645.73 56.4533 639.756 58 631.543 58H614.903ZM631.063 48.08C634.743 48.08 637.623 47.4933 639.703 46.32C641.836 45.1467 642.903 43.0933 642.903 40.16C642.903 37.12 641.756 35.12 639.463 34.16C637.17 33.2 634.05 32.72 630.103 32.72H626.983V48.08H631.063Z" fill="white"/>
</svg>
