<svg width="735" height="735" viewBox="0 0 735 735" fill="none" xmlns="http://www.w3.org/2000/svg">
<path d="M229.688 0H0V229.688H229.688V0ZM183.75 183.75H45.9375V45.9375H183.75V183.75Z" fill="white"/>
<path d="M137.812 91.875H91.875V137.812H137.812V91.875Z" fill="white"/>
<path d="M505.312 0V229.688H735V0H505.312ZM689.062 183.75H551.25V45.9375H689.062V183.75Z" fill="white"/>
<path d="M643.125 91.875H597.188V137.812H643.125V91.875Z" fill="white"/>
<path d="M0 735H229.688V505.312H0V735ZM45.9375 551.25H183.75V689.062H45.9375V551.25Z" fill="white"/>
<path d="M137.812 597.188H91.875V643.125H137.812V597.188Z" fill="white"/>
<path d="M459.375 0H367.5V45.9375H459.375V0Z" fill="white"/>
<path d="M367.5 183.75H413.438V137.812H459.375V91.875H321.562V45.9375H275.625V91.875V114.844V137.812H367.5V183.75Z" fill="white"/>
<path d="M321.562 183.75H275.625V229.688H321.562V183.75Z" fill="white"/>
<path d="M459.375 229.688H413.438V275.625H275.625V321.562H459.375V229.688Z" fill="white"/>
<path d="M45.9375 413.438H91.875V367.5H45.9375V275.625H0V459.375H45.9375V413.438Z" fill="white"/>
<path d="M137.812 275.625H91.875V321.562H137.812V275.625Z" fill="white"/>
<path d="M275.625 459.375H367.5V413.438H321.562V367.5H229.688V275.625H183.75V367.5H137.812V459.375H183.75V413.438H206.719H229.688H275.625V459.375Z" fill="white"/>
<path d="M459.375 367.5H413.438V459.375H459.375V367.5Z" fill="white"/>
<path d="M413.438 505.312H275.625V551.25H367.5V689.062H275.625V735H413.438V689.062H505.312V643.125H413.438V505.312Z" fill="white"/>
<path d="M321.562 597.188H275.625V643.125H321.562V597.188Z" fill="white"/>
<path d="M505.312 505.312H459.375V597.188H505.312V505.312Z" fill="white"/>
<path d="M689.062 597.188H551.25V735H597.188V643.125H689.062V597.188Z" fill="white"/>
<path d="M735 689.062H643.125V735H735V689.062Z" fill="white"/>
<path d="M735 505.312H689.062V551.25H735V505.312Z" fill="white"/>
<path d="M551.25 551.25H597.188V413.438H505.312V459.375H551.25V551.25Z" fill="white"/>
<path d="M643.125 321.562H597.188V275.625H551.25V321.562H505.312V367.5H689.062V321.562H735V275.625H643.125V321.562Z" fill="white"/>
<path d="M735 413.438H643.125V459.375H735V413.438Z" fill="white"/>
</svg>
