<svg width="334" height="30" viewBox="0 0 334 30" fill="none" xmlns="http://www.w3.org/2000/svg">
<path d="M19.4969 29V16.7734H5.78593V29H0.746872V0.816406H5.78593V12.5352H19.4969V0.816406H24.5164V29H19.4969ZM42.2656 25.5039C43.75 25.5039 44.987 25.0872 45.9766 24.2539C46.9661 23.4206 47.4609 22.3594 47.4609 21.0703V19.4492L42.5781 19.7617C39.8698 19.944 38.5156 20.9206 38.5156 22.6914C38.5156 23.5508 38.8607 24.2344 39.5508 24.7422C40.2279 25.25 41.1328 25.5039 42.2656 25.5039ZM40.8398 29.2344C38.7305 29.2344 37.0052 28.6484 35.6641 27.4766C34.3099 26.3047 33.6328 24.7747 33.6328 22.8867C33.6328 20.9857 34.3424 19.5013 35.7617 18.4336C37.168 17.3659 39.2187 16.7474 41.9141 16.5781L47.4609 16.2461V14.6836C47.4609 13.5638 47.0964 12.6979 46.3672 12.0859C45.651 11.487 44.6354 11.1875 43.3203 11.1875C42.2266 11.1875 41.3086 11.4479 40.5664 11.9688C39.8242 12.4896 39.3685 13.1862 39.1992 14.0586H34.707C34.7721 12.1055 35.6185 10.4974 37.2461 9.23438C38.8867 7.98438 40.9635 7.35938 43.4766 7.35938C46.1458 7.35938 48.2747 7.9974 49.8633 9.27344C51.4648 10.5495 52.2656 12.2487 52.2656 14.3711V29H47.5977V25.5625H47.4805C46.8945 26.6953 45.9961 27.5938 44.7852 28.2578C43.5872 28.9089 42.2721 29.2344 40.8398 29.2344ZM74.2141 29V19.5469H74.0578C72.6255 21.1224 70.6789 21.9102 68.218 21.9102C65.9393 21.9102 64.1294 21.2005 62.7883 19.7812C61.4602 18.375 60.7961 16.4935 60.7961 14.1367V7.65234H65.6398V13.6289C65.6398 14.931 65.9784 15.9531 66.6555 16.6953C67.3195 17.4375 68.244 17.8086 69.4289 17.8086C71.5643 17.8086 73.1594 17.0273 74.2141 15.4648V7.65234H79.0578V29H74.2141ZM96.1234 25.5039C97.6078 25.5039 98.8448 25.0872 99.8344 24.2539C100.824 23.4206 101.319 22.3594 101.319 21.0703V19.4492L96.4359 19.7617C93.7276 19.944 92.3734 20.9206 92.3734 22.6914C92.3734 23.5508 92.7185 24.2344 93.4086 24.7422C94.0857 25.25 94.9906 25.5039 96.1234 25.5039ZM94.6977 29.2344C92.5883 29.2344 90.863 28.6484 89.5219 27.4766C88.1677 26.3047 87.4906 24.7747 87.4906 22.8867C87.4906 20.9857 88.2003 19.5013 89.6195 18.4336C91.0258 17.3659 93.0766 16.7474 95.7719 16.5781L101.319 16.2461V14.6836C101.319 13.5638 100.954 12.6979 100.225 12.0859C99.5089 11.487 98.4932 11.1875 97.1781 11.1875C96.0844 11.1875 95.1664 11.4479 94.4242 11.9688C93.682 12.4896 93.2263 13.1862 93.057 14.0586H88.5648C88.6299 12.1055 89.4763 10.4974 91.1039 9.23438C92.7445 7.98438 94.8214 7.35938 97.3344 7.35938C100.004 7.35938 102.133 7.9974 103.721 9.27344C105.323 10.5495 106.123 12.2487 106.123 14.3711V29H101.455V25.5625H101.338C100.752 26.6953 99.8539 27.5938 98.643 28.2578C97.4451 28.9089 96.1299 29.2344 94.6977 29.2344ZM131.431 11.4414H124.849V29H120.005V11.4414H113.423V7.65234H131.431V11.4414ZM144.22 17.8086V25.25H147.735C148.933 25.25 149.89 24.9115 150.606 24.2344C151.309 23.5573 151.661 22.6589 151.661 21.5391C151.661 20.4193 151.303 19.5143 150.587 18.8242C149.871 18.1471 148.92 17.8086 147.735 17.8086H144.22ZM139.376 7.65234H144.22V14.0977H148.321C150.808 14.0977 152.794 14.7747 154.278 16.1289C155.749 17.4701 156.485 19.2799 156.485 21.5586C156.485 23.8372 155.749 25.6471 154.278 26.9883C152.794 28.3294 150.808 29 148.321 29H139.376V7.65234ZM186.534 29.4102C183.943 29.4102 181.834 28.8177 180.206 27.6328C178.566 26.4349 177.648 24.8073 177.452 22.75H182.179C182.661 24.638 184.113 25.582 186.534 25.582C187.836 25.582 188.852 25.3086 189.581 24.7617C190.297 24.2279 190.655 23.5052 190.655 22.5938C190.655 20.6667 189.288 19.7031 186.554 19.7031H183.488V16.3047H186.456C188.813 16.3047 189.991 15.4258 189.991 13.668C189.991 12.8607 189.705 12.2227 189.132 11.7539C188.52 11.2591 187.648 11.0117 186.515 11.0117C185.395 11.0117 184.484 11.2461 183.78 11.7148C183.064 12.1836 182.641 12.8346 182.511 13.668H177.882C178.103 11.6758 178.976 10.1068 180.499 8.96094C182.036 7.8151 184.034 7.24219 186.495 7.24219C189.126 7.24219 191.163 7.77604 192.609 8.84375C194.028 9.89844 194.738 11.3438 194.738 13.1797C194.738 14.2734 194.432 15.2305 193.82 16.0508C193.208 16.8841 192.394 17.431 191.378 17.6914V17.8477C194.113 18.5117 195.48 20.1133 195.48 22.6523C195.48 24.7096 194.672 26.3503 193.058 27.5742C191.443 28.7982 189.269 29.4102 186.534 29.4102ZM211.725 25.5039C213.209 25.5039 214.446 25.0872 215.436 24.2539C216.426 23.4206 216.92 22.3594 216.92 21.0703V19.4492L212.037 19.7617C209.329 19.944 207.975 20.9206 207.975 22.6914C207.975 23.5508 208.32 24.2344 209.01 24.7422C209.687 25.25 210.592 25.5039 211.725 25.5039ZM210.299 29.2344C208.19 29.2344 206.465 28.6484 205.123 27.4766C203.769 26.3047 203.092 24.7747 203.092 22.8867C203.092 20.9857 203.802 19.5013 205.221 18.4336C206.627 17.3659 208.678 16.7474 211.373 16.5781L216.92 16.2461V14.6836C216.92 13.5638 216.556 12.6979 215.827 12.0859C215.11 11.487 214.095 11.1875 212.78 11.1875C211.686 11.1875 210.768 11.4479 210.026 11.9688C209.284 12.4896 208.828 13.1862 208.659 14.0586H204.166C204.232 12.1055 205.078 10.4974 206.705 9.23438C208.346 7.98438 210.423 7.35938 212.936 7.35938C215.605 7.35938 217.734 7.9974 219.323 9.27344C220.924 10.5495 221.725 12.2487 221.725 14.3711V29H217.057V25.5625H216.94C216.354 26.6953 215.455 27.5938 214.245 28.2578C213.047 28.9089 211.732 29.2344 210.299 29.2344ZM244.943 19.8984H235.568V29H230.724V7.65234H235.568V16.1094H244.943V7.65234H249.767V29H244.943V19.8984ZM268.493 29.3125C265.342 29.3125 262.842 28.3294 260.993 26.3633C259.144 24.3971 258.22 21.7148 258.22 18.3164C258.22 14.957 259.151 12.2878 261.013 10.3086C262.861 8.34245 265.355 7.35938 268.493 7.35938C271.644 7.35938 274.144 8.34245 275.993 10.3086C277.855 12.2747 278.786 14.944 278.786 18.3164C278.786 21.7148 277.861 24.3971 276.013 26.3633C274.164 28.3294 271.657 29.3125 268.493 29.3125ZM268.493 25.4258C270.173 25.4258 271.488 24.8008 272.438 23.5508C273.376 22.3138 273.845 20.5755 273.845 18.3359C273.845 16.1094 273.369 14.3711 272.419 13.1211C271.481 11.8711 270.173 11.2461 268.493 11.2461C266.826 11.2461 265.524 11.8711 264.587 13.1211C263.636 14.3711 263.161 16.1094 263.161 18.3359C263.161 20.5625 263.636 22.3008 264.587 23.5508C265.524 24.8008 266.826 25.4258 268.493 25.4258ZM292.043 11.0117V16.3828H295.93C298.312 16.3828 299.504 15.4779 299.504 13.668C299.504 11.8971 298.443 11.0117 296.32 11.0117H292.043ZM292.043 19.5469V25.6406H296.652C299.126 25.6406 300.363 24.6315 300.363 22.6133C300.363 20.569 298.983 19.5469 296.223 19.5469H292.043ZM287.277 7.65234H297.434C299.556 7.65234 301.229 8.13411 302.453 9.09766C303.664 10.0612 304.27 11.3893 304.27 13.082C304.27 14.2018 303.911 15.1979 303.195 16.0703C302.492 16.9557 301.613 17.4896 300.559 17.6719V17.8281C301.952 18.0104 303.072 18.5573 303.918 19.4688C304.777 20.3932 305.207 21.5195 305.207 22.8477C305.207 24.7227 304.523 26.2135 303.156 27.3203C301.776 28.4401 299.914 29 297.57 29H287.277V7.65234ZM323.171 29.3125C320.02 29.3125 317.52 28.3294 315.671 26.3633C313.822 24.3971 312.898 21.7148 312.898 18.3164C312.898 14.957 313.829 12.2878 315.691 10.3086C317.54 8.34245 320.033 7.35938 323.171 7.35938C326.322 7.35938 328.822 8.34245 330.671 10.3086C332.533 12.2747 333.464 14.944 333.464 18.3164C333.464 21.7148 332.54 24.3971 330.691 26.3633C328.842 28.3294 326.335 29.3125 323.171 29.3125ZM323.171 25.4258C324.851 25.4258 326.166 24.8008 327.116 23.5508C328.054 22.3138 328.523 20.5755 328.523 18.3359C328.523 16.1094 328.047 14.3711 327.097 13.1211C326.159 11.8711 324.851 11.2461 323.171 11.2461C321.504 11.2461 320.202 11.8711 319.265 13.1211C318.314 14.3711 317.839 16.1094 317.839 18.3359C317.839 20.5625 318.314 22.3008 319.265 23.5508C320.202 24.8008 321.504 25.4258 323.171 25.4258Z" fill="white"/>
</svg>
