<svg width="906" height="332" viewBox="0 0 906 332" fill="none" xmlns="http://www.w3.org/2000/svg">
<g filter="url(#filter0_d)">
<path d="M36.2324 130H19.7324V25H71.7824V130H54.9824V40H36.2324V130ZM118.546 25C126.846 25 132.996 27.2 136.996 31.6C141.096 36 143.146 42.45 143.146 50.95V64.6C143.146 73.1 141.096 79.55 136.996 83.95C132.996 88.35 126.846 90.55 118.546 90.55H110.746V130H94.2461V25H118.546ZM110.746 40V75.55H118.546C121.146 75.55 123.146 74.85 124.546 73.45C125.946 72.05 126.646 69.45 126.646 65.65V49.9C126.646 46.1 125.946 43.5 124.546 42.1C123.146 40.7 121.146 40 118.546 40H110.746ZM178.093 130H161.143V25H175.843V87.85L192.793 25H213.493V130H198.643V53.95L178.093 130ZM252.449 130H235.949V25H279.599V40H252.449V130ZM312.572 105.85C312.572 109.65 313.322 112.35 314.822 113.95C316.422 115.45 318.522 116.2 321.122 116.2C323.722 116.2 325.772 115.45 327.272 113.95C328.872 112.35 329.672 109.65 329.672 105.85V49.15C329.672 45.35 328.872 42.7 327.272 41.2C325.772 39.6 323.722 38.8 321.122 38.8C318.522 38.8 316.422 39.6 314.822 41.2C313.322 42.7 312.572 45.35 312.572 49.15V105.85ZM296.072 50.2C296.072 41.7 298.222 35.2 302.522 30.7C306.822 26.1 313.022 23.8 321.122 23.8C329.222 23.8 335.422 26.1 339.722 30.7C344.022 35.2 346.172 41.7 346.172 50.2V104.8C346.172 113.3 344.022 119.85 339.722 124.45C335.422 128.95 329.222 131.2 321.122 131.2C313.022 131.2 306.822 128.95 302.522 124.45C298.222 119.85 296.072 113.3 296.072 104.8V50.2ZM362.605 25H413.605V40H396.355V130H379.855V40H362.605V25ZM446.658 105.85C446.658 109.65 447.408 112.35 448.908 113.95C450.508 115.45 452.608 116.2 455.208 116.2C457.808 116.2 459.858 115.45 461.358 113.95C462.958 112.35 463.758 109.65 463.758 105.85V49.15C463.758 45.35 462.958 42.7 461.358 41.2C459.858 39.6 457.808 38.8 455.208 38.8C452.608 38.8 450.508 39.6 448.908 41.2C447.408 42.7 446.658 45.35 446.658 49.15V105.85ZM430.158 50.2C430.158 41.7 432.308 35.2 436.608 30.7C440.908 26.1 447.108 23.8 455.208 23.8C463.308 23.8 469.508 26.1 473.808 30.7C478.108 35.2 480.258 41.7 480.258 50.2V104.8C480.258 113.3 478.108 119.85 473.808 124.45C469.508 128.95 463.308 131.2 455.208 131.2C447.108 131.2 440.908 128.95 436.608 124.45C432.308 119.85 430.158 113.3 430.158 104.8V50.2ZM526.091 25C534.691 25 540.891 27 544.691 31C548.591 35 550.541 41.05 550.541 49.15V52.9C550.541 58.3 549.691 62.75 547.991 66.25C546.291 69.75 543.591 72.35 539.891 74.05C544.391 75.75 547.541 78.55 549.341 82.45C551.241 86.25 552.191 90.95 552.191 96.55V105.1C552.191 113.2 550.091 119.4 545.891 123.7C541.691 127.9 535.441 130 527.141 130H501.191V25H526.091ZM517.691 82.75V115H527.141C529.941 115 532.041 114.25 533.441 112.75C534.941 111.25 535.691 108.55 535.691 104.65V95.5C535.691 90.6 534.841 87.25 533.141 85.45C531.541 83.65 528.841 82.75 525.041 82.75H517.691ZM517.691 40V67.75H524.141C527.241 67.75 529.641 66.95 531.341 65.35C533.141 63.75 534.041 60.85 534.041 56.65V50.8C534.041 47 533.341 44.25 531.941 42.55C530.641 40.85 528.541 40 525.641 40H517.691ZM596.782 115C599.382 115 601.382 114.3 602.782 112.9C604.182 111.5 604.882 108.9 604.882 105.1V89.35C604.882 85.55 604.182 82.95 602.782 81.55C601.382 80.15 599.382 79.45 596.782 79.45H588.982V115H596.782ZM572.482 130V25H588.982V64.45H596.782C605.082 64.45 611.232 66.65 615.232 71.05C619.332 75.45 621.382 81.9 621.382 90.4V104.05C621.382 112.55 619.332 119 615.232 123.4C611.232 127.8 605.082 130 596.782 130H572.482ZM634.879 25H685.879V40H668.629V130H652.129V40H634.879V25ZM720.432 69.25H743.082V84.25H720.432V115H748.932V130H703.932V25H748.932V40H720.432V69.25ZM816.917 90.85V104.8C816.917 113.3 814.817 119.85 810.617 124.45C806.517 128.95 800.417 131.2 792.317 131.2C784.217 131.2 778.067 128.95 773.867 124.45C769.767 119.85 767.717 113.3 767.717 104.8V50.2C767.717 41.7 769.767 35.2 773.867 30.7C778.067 26.1 784.217 23.8 792.317 23.8C800.417 23.8 806.517 26.1 810.617 30.7C814.817 35.2 816.917 41.7 816.917 50.2V60.4H801.317V49.15C801.317 45.35 800.517 42.7 798.917 41.2C797.417 39.6 795.367 38.8 792.767 38.8C790.167 38.8 788.067 39.6 786.467 41.2C784.967 42.7 784.217 45.35 784.217 49.15V105.85C784.217 109.65 784.967 112.3 786.467 113.8C788.067 115.3 790.167 116.05 792.767 116.05C795.367 116.05 797.417 115.3 798.917 113.8C800.517 112.3 801.317 109.65 801.317 105.85V90.85H816.917ZM862.171 115C864.771 115 866.771 114.3 868.171 112.9C869.571 111.5 870.271 108.9 870.271 105.1V89.35C870.271 85.55 869.571 82.95 868.171 81.55C866.771 80.15 864.771 79.45 862.171 79.45H854.371V115H862.171ZM837.871 130V25H854.371V64.45H862.171C870.471 64.45 876.621 66.65 880.621 71.05C884.721 75.45 886.771 81.9 886.771 90.4V104.05C886.771 112.55 884.721 119 880.621 123.4C876.621 127.8 870.471 130 862.171 130H837.871ZM88.576 265.85V279.8C88.576 288.3 86.476 294.85 82.276 299.45C78.176 303.95 72.076 306.2 63.976 306.2C55.876 306.2 49.726 303.95 45.526 299.45C41.426 294.85 39.376 288.3 39.376 279.8V225.2C39.376 216.7 41.426 210.2 45.526 205.7C49.726 201.1 55.876 198.8 63.976 198.8C72.076 198.8 78.176 201.1 82.276 205.7C86.476 210.2 88.576 216.7 88.576 225.2V235.4H72.976V224.15C72.976 220.35 72.176 217.7 70.576 216.2C69.076 214.6 67.026 213.8 64.426 213.8C61.826 213.8 59.726 214.6 58.126 216.2C56.626 217.7 55.876 220.35 55.876 224.15V280.85C55.876 284.65 56.626 287.3 58.126 288.8C59.726 290.3 61.826 291.05 64.426 291.05C67.026 291.05 69.076 290.3 70.576 288.8C72.176 287.3 72.976 284.65 72.976 280.85V265.85H88.576ZM103.53 290C104.43 290.1 105.38 290.15 106.38 290.15C107.38 290.15 108.33 290.15 109.23 290.15C111.83 290.15 114.03 289.5 115.83 288.2C117.73 286.9 118.68 284.2 118.68 280.1V200H170.88V290H179.28V317H162.48V305H120.33V317H103.53V290ZM135.18 278.9C135.18 283.3 134.73 287 133.83 290H154.38V215H135.18V278.9ZM212.995 244.25H235.645V259.25H212.995V290H241.495V305H196.495V200H241.495V215H212.995V244.25ZM308.13 215H288.93V278.9C288.93 284.2 288.28 288.55 286.98 291.95C285.68 295.35 283.93 298.05 281.73 300.05C279.53 301.95 276.98 303.3 274.08 304.1C271.28 304.9 268.33 305.3 265.23 305.3C263.73 305.3 262.38 305.3 261.18 305.3C259.98 305.3 258.68 305.2 257.28 305V290C258.18 290.1 259.13 290.15 260.13 290.15C261.13 290.15 262.08 290.15 262.98 290.15C265.58 290.15 267.78 289.5 269.58 288.2C271.48 286.9 272.43 284.2 272.43 280.1V200H324.63V305H308.13V215ZM400.384 305H383.734L380.884 285.95H360.634L357.784 305H342.634L359.434 200H383.584L400.384 305ZM362.734 271.7H378.634L370.684 218.6L362.734 271.7ZM413.925 200H464.925V215H447.675V305H431.175V215H413.925V200ZM507.278 290C509.878 290 511.878 289.3 513.278 287.9C514.678 286.5 515.378 283.9 515.378 280.1V264.35C515.378 260.55 514.678 257.95 513.278 256.55C511.878 255.15 509.878 254.45 507.278 254.45H499.478V290H507.278ZM482.978 305V200H499.478V239.45H507.278C515.578 239.45 521.728 241.65 525.728 246.05C529.828 250.45 531.878 256.9 531.878 265.4V279.05C531.878 287.55 529.828 294 525.728 298.4C521.728 302.8 515.578 305 507.278 305H482.978ZM612.315 286.55H604.515C596.215 286.55 590.015 284.35 585.915 279.95C581.915 275.55 579.915 269.1 579.915 260.6V231.95C579.915 223.45 581.915 217 585.915 212.6C590.015 208.2 596.215 206 604.515 206H612.315V200H628.815V206H636.615C644.915 206 651.065 208.2 655.065 212.6C659.165 217 661.215 223.45 661.215 231.95V260.6C661.215 269.1 659.165 275.55 655.065 279.95C651.065 284.35 644.915 286.55 636.615 286.55H628.815V305H612.315V286.55ZM628.815 221V271.55H636.615C639.215 271.55 641.215 270.85 642.615 269.45C644.015 268.05 644.715 265.45 644.715 261.65V230.9C644.715 227.1 644.015 224.5 642.615 223.1C641.215 221.7 639.215 221 636.615 221H628.815ZM604.515 221C601.915 221 599.915 221.7 598.515 223.1C597.115 224.5 596.415 227.1 596.415 230.9V261.65C596.415 265.45 597.115 268.05 598.515 269.45C599.915 270.85 601.915 271.55 604.515 271.55H612.315V221H604.515ZM695.005 280.85C695.005 284.65 695.755 287.35 697.255 288.95C698.855 290.45 700.955 291.2 703.555 291.2C706.155 291.2 708.205 290.45 709.705 288.95C711.305 287.35 712.105 284.65 712.105 280.85V224.15C712.105 220.35 711.305 217.7 709.705 216.2C708.205 214.6 706.155 213.8 703.555 213.8C700.955 213.8 698.855 214.6 697.255 216.2C695.755 217.7 695.005 220.35 695.005 224.15V280.85ZM678.505 225.2C678.505 216.7 680.655 210.2 684.955 205.7C689.255 201.1 695.455 198.8 703.555 198.8C711.655 198.8 717.855 201.1 722.155 205.7C726.455 210.2 728.605 216.7 728.605 225.2V279.8C728.605 288.3 726.455 294.85 722.155 299.45C717.855 303.95 711.655 306.2 703.555 306.2C695.455 306.2 689.255 303.95 684.955 299.45C680.655 294.85 678.505 288.3 678.505 279.8V225.2ZM745.038 200H796.038V215H778.788V305H762.288V215H745.038V200ZM829.091 280.85C829.091 284.65 829.841 287.35 831.341 288.95C832.941 290.45 835.041 291.2 837.641 291.2C840.241 291.2 842.291 290.45 843.791 288.95C845.391 287.35 846.191 284.65 846.191 280.85V224.15C846.191 220.35 845.391 217.7 843.791 216.2C842.291 214.6 840.241 213.8 837.641 213.8C835.041 213.8 832.941 214.6 831.341 216.2C829.841 217.7 829.091 220.35 829.091 224.15V280.85ZM812.591 225.2C812.591 216.7 814.741 210.2 819.041 205.7C823.341 201.1 829.541 198.8 837.641 198.8C845.741 198.8 851.941 201.1 856.241 205.7C860.541 210.2 862.691 216.7 862.691 225.2V279.8C862.691 288.3 860.541 294.85 856.241 299.45C851.941 303.95 845.741 306.2 837.641 306.2C829.541 306.2 823.341 303.95 819.041 299.45C814.741 294.85 812.591 288.3 812.591 279.8V225.2Z" fill="#D39742"/>
</g>
<defs>
<filter id="filter0_d" x="0.732422" y="0.800049" width="905.039" height="331.2" filterUnits="userSpaceOnUse" color-interpolation-filters="sRGB">
<feFlood flood-opacity="0" result="BackgroundImageFix"/>
<feColorMatrix in="SourceAlpha" type="matrix" values="0 0 0 0 0 0 0 0 0 0 0 0 0 0 0 0 0 0 127 0"/>
<feOffset dy="-4"/>
<feGaussianBlur stdDeviation="9.5"/>
<feColorMatrix type="matrix" values="0 0 0 0 1 0 0 0 0 1 0 0 0 0 1 0 0 0 0.4 0"/>
<feBlend mode="normal" in2="BackgroundImageFix" result="effect1_dropShadow"/>
<feBlend mode="normal" in="SourceGraphic" in2="effect1_dropShadow" result="shape"/>
</filter>
</defs>
</svg>
