<svg width="734" height="332" viewBox="0 0 734 332" fill="none" xmlns="http://www.w3.org/2000/svg">
<g filter="url(#filter0_d)">
<path d="M128.631 25C137.231 25 143.431 27 147.231 31C151.131 35 153.081 41.05 153.081 49.15V52.9C153.081 58.3 152.231 62.75 150.531 66.25C148.831 69.75 146.131 72.35 142.431 74.05C146.931 75.75 150.081 78.55 151.881 82.45C153.781 86.25 154.731 90.95 154.731 96.55V105.1C154.731 113.2 152.631 119.4 148.431 123.7C144.231 127.9 137.981 130 129.681 130H103.731V25H128.631ZM120.231 82.75V115H129.681C132.481 115 134.581 114.25 135.981 112.75C137.481 111.25 138.231 108.55 138.231 104.65V95.5C138.231 90.6 137.381 87.25 135.681 85.45C134.081 83.65 131.381 82.75 127.581 82.75H120.231ZM120.231 40V67.75H126.681C129.781 67.75 132.181 66.95 133.881 65.35C135.681 63.75 136.581 60.85 136.581 56.65V50.8C136.581 47 135.881 44.25 134.481 42.55C133.181 40.85 131.081 40 128.181 40H120.231ZM222.722 90.85V104.8C222.722 113.3 220.622 119.85 216.422 124.45C212.322 128.95 206.222 131.2 198.122 131.2C190.022 131.2 183.872 128.95 179.672 124.45C175.572 119.85 173.522 113.3 173.522 104.8V50.2C173.522 41.7 175.572 35.2 179.672 30.7C183.872 26.1 190.022 23.8 198.122 23.8C206.222 23.8 212.322 26.1 216.422 30.7C220.622 35.2 222.722 41.7 222.722 50.2V60.4H207.122V49.15C207.122 45.35 206.322 42.7 204.722 41.2C203.222 39.6 201.172 38.8 198.572 38.8C195.972 38.8 193.872 39.6 192.272 41.2C190.772 42.7 190.022 45.35 190.022 49.15V105.85C190.022 109.65 190.772 112.3 192.272 113.8C193.872 115.3 195.972 116.05 198.572 116.05C201.172 116.05 203.222 115.3 204.722 113.8C206.322 112.3 207.122 109.65 207.122 105.85V90.85H222.722ZM239.177 25H290.177V40H272.927V130H256.427V40H239.177V25ZM361.479 130H344.829L341.979 110.95H321.729L318.879 130H303.729L320.529 25H344.679L361.479 130ZM323.829 96.7H339.729L331.779 43.6L323.829 96.7ZM396.021 130H379.521V25H396.021V70H414.771V25H431.571V130H414.771V85H396.021V130ZM478.334 115C480.934 115 482.934 114.3 484.334 112.9C485.734 111.5 486.434 108.9 486.434 105.1V89.35C486.434 85.55 485.734 82.95 484.334 81.55C482.934 80.15 480.934 79.45 478.334 79.45H470.534V115H478.334ZM454.034 130V25H470.534V64.45H478.334C486.634 64.45 492.784 66.65 496.784 71.05C500.884 75.45 502.934 81.9 502.934 90.4V104.05C502.934 112.55 500.884 119 496.784 123.4C492.784 127.8 486.634 130 478.334 130H454.034ZM516.431 25H567.431V40H550.181V130H533.681V40H516.431V25ZM601.983 69.25H624.633V84.25H601.983V115H630.483V130H585.483V25H630.483V40H601.983V69.25ZM35.5371 305H19.0371V200H35.5371V245H54.2871V200H71.0871V305H54.2871V260H35.5371V305ZM146.801 305H130.151L127.301 285.95H107.051L104.201 305H89.0508L105.851 200H130.001L146.801 305ZM109.151 271.7H125.051L117.101 218.6L109.151 271.7ZM215.133 305H198.633V200H250.683V305H233.883V215H215.133V305ZM288.146 280.85C288.146 284.65 288.896 287.35 290.396 288.95C291.996 290.45 294.096 291.2 296.696 291.2C299.296 291.2 301.346 290.45 302.846 288.95C304.446 287.35 305.246 284.65 305.246 280.85V224.15C305.246 220.35 304.446 217.7 302.846 216.2C301.346 214.6 299.296 213.8 296.696 213.8C294.096 213.8 291.996 214.6 290.396 216.2C288.896 217.7 288.146 220.35 288.146 224.15V280.85ZM271.646 225.2C271.646 216.7 273.796 210.2 278.096 205.7C282.396 201.1 288.596 198.8 296.696 198.8C304.796 198.8 310.996 201.1 315.296 205.7C319.596 210.2 321.746 216.7 321.746 225.2V279.8C321.746 288.3 319.596 294.85 315.296 299.45C310.996 303.95 304.796 306.2 296.696 306.2C288.596 306.2 282.396 303.95 278.096 299.45C273.796 294.85 271.646 288.3 271.646 279.8V225.2ZM373.88 225.8C373.88 221.1 373.08 217.95 371.48 216.35C369.98 214.65 367.93 213.8 365.33 213.8C362.73 213.8 360.63 214.6 359.03 216.2C357.53 217.7 356.78 220.35 356.78 224.15V235.4H341.18V225.2C341.18 216.7 343.23 210.2 347.33 205.7C351.53 201.1 357.68 198.8 365.78 198.8C373.88 198.8 379.98 201.1 384.08 205.7C388.28 210.2 390.38 216.7 390.38 225.2V227.9C390.38 239.1 386.53 246.3 378.83 249.5C383.03 251.3 385.98 254.1 387.68 257.9C389.48 261.6 390.38 266.15 390.38 271.55V279.8C390.38 288.3 388.28 294.85 384.08 299.45C379.98 303.95 373.88 306.2 365.78 306.2C357.68 306.2 351.53 303.95 347.33 299.45C343.23 294.85 341.18 288.3 341.18 279.8V266.6H356.78V280.85C356.78 284.65 357.53 287.35 359.03 288.95C360.63 290.45 362.73 291.2 365.33 291.2C367.93 291.2 369.98 290.4 371.48 288.8C373.08 287.2 373.88 284.05 373.88 279.35V271.1C373.88 266.2 373.03 262.75 371.33 260.75C369.63 258.75 366.88 257.75 363.08 257.75H360.53V242.75H363.98C367.08 242.75 369.48 241.95 371.18 240.35C372.98 238.75 373.88 235.85 373.88 231.65V225.8ZM428.284 305H411.334V200H426.034V262.85L442.984 200H463.684V305H448.834V228.95L428.284 305ZM502.641 290H521.391V200H538.191V290H546.591V317H529.791V305H486.141V200H502.641V290ZM580.095 305H563.145V200H577.845V262.85L594.795 200H615.495V305H600.645V228.95L580.095 305ZM654.451 305H637.951V200H654.451V245H664.351V225.2C664.351 216.7 666.501 210.2 670.801 205.7C675.101 201.1 681.301 198.8 689.401 198.8C697.501 198.8 703.701 201.1 708.001 205.7C712.301 210.2 714.451 216.7 714.451 225.2V279.8C714.451 288.3 712.301 294.85 708.001 299.45C703.701 303.95 697.501 306.2 689.401 306.2C681.301 306.2 675.101 303.95 670.801 299.45C666.501 294.85 664.351 288.3 664.351 279.8V260H654.451V305ZM680.851 280.85C680.851 284.65 681.601 287.35 683.101 288.95C684.701 290.45 686.801 291.2 689.401 291.2C692.001 291.2 694.051 290.45 695.551 288.95C697.151 287.35 697.951 284.65 697.951 280.85V224.15C697.951 220.35 697.151 217.7 695.551 216.2C694.051 214.6 692.001 213.8 689.401 213.8C686.801 213.8 684.701 214.6 683.101 216.2C681.601 217.7 680.851 220.35 680.851 224.15V280.85Z" fill="#D39742"/>
</g>
<defs>
<filter id="filter0_d" x="0.0371094" y="0.800049" width="733.414" height="331.2" filterUnits="userSpaceOnUse" color-interpolation-filters="sRGB">
<feFlood flood-opacity="0" result="BackgroundImageFix"/>
<feColorMatrix in="SourceAlpha" type="matrix" values="0 0 0 0 0 0 0 0 0 0 0 0 0 0 0 0 0 0 127 0"/>
<feOffset dy="-4"/>
<feGaussianBlur stdDeviation="9.5"/>
<feColorMatrix type="matrix" values="0 0 0 0 1 0 0 0 0 1 0 0 0 0 1 0 0 0 0.4 0"/>
<feBlend mode="normal" in2="BackgroundImageFix" result="effect1_dropShadow"/>
<feBlend mode="normal" in="SourceGraphic" in2="effect1_dropShadow" result="shape"/>
</filter>
</defs>
</svg>
