<svg width="1012" height="452" viewBox="0 0 1012 452" fill="none" xmlns="http://www.w3.org/2000/svg">
<path d="M40.44 1.99999C54.2 1.99999 64.12 5.19999 70.2 11.6C76.44 18 79.56 27.68 79.56 40.64V46.64C79.56 55.28 78.2 62.4 75.48 68C72.76 73.6 68.44 77.76 62.52 80.48C69.72 83.2 74.76 87.68 77.64 93.92C80.68 100 82.2 107.52 82.2 116.48V130.16C82.2 143.12 78.84 153.04 72.12 159.92C65.4 166.64 55.4 170 42.12 170H0.600001V1.99999H40.44ZM27 94.4V146H42.12C46.6 146 49.96 144.8 52.2 142.4C54.6 140 55.8 135.68 55.8 129.44V114.8C55.8 106.96 54.44 101.6 51.72 98.72C49.16 95.84 44.84 94.4 38.76 94.4H27ZM27 26V70.4H37.32C42.28 70.4 46.12 69.12 48.84 66.56C51.72 64 53.16 59.36 53.16 52.64V43.28C53.16 37.2 52.04 32.8 49.8 30.08C47.72 27.36 44.36 26 39.72 26H27ZM202.266 170H175.626L171.066 139.52H138.666L134.106 170H109.866L136.746 1.99999H175.386L202.266 170ZM142.026 116.72H167.466L154.746 31.76L142.026 116.72ZM307.691 146H329.051V1.99999H355.691V170H233.531V1.99999H259.691V146H281.291V1.99999H307.691V146ZM420.459 72.8H456.699V96.8H420.459V146H466.059V170H394.059V1.99999H466.059V26H420.459V72.8ZM603.221 140.48H590.741C577.461 140.48 567.541 136.96 560.981 129.92C554.581 122.88 551.381 112.56 551.381 98.96V53.12C551.381 39.52 554.581 29.2 560.981 22.16C567.541 15.12 577.461 11.6 590.741 11.6H603.221V1.99999H629.621V11.6H642.101C655.381 11.6 665.221 15.12 671.621 22.16C678.181 29.2 681.461 39.52 681.461 53.12V98.96C681.461 112.56 678.181 122.88 671.621 129.92C665.221 136.96 655.381 140.48 642.101 140.48H629.621V170H603.221V140.48ZM629.621 35.6V116.48H642.101C646.261 116.48 649.461 115.36 651.701 113.12C653.941 110.88 655.061 106.72 655.061 100.64V51.44C655.061 45.36 653.941 41.2 651.701 38.96C649.461 36.72 646.261 35.6 642.101 35.6H629.621ZM590.741 35.6C586.581 35.6 583.381 36.72 581.141 38.96C578.901 41.2 577.781 45.36 577.781 51.44V100.64C577.781 106.72 578.901 110.88 581.141 113.12C583.381 115.36 586.581 116.48 590.741 116.48H603.221V35.6H590.741ZM737.925 131.36C737.925 137.44 739.125 141.76 741.525 144.32C744.085 146.72 747.445 147.92 751.605 147.92C755.765 147.92 759.045 146.72 761.445 144.32C764.005 141.76 765.285 137.44 765.285 131.36V40.64C765.285 34.56 764.005 30.32 761.445 27.92C759.045 25.36 755.765 24.08 751.605 24.08C747.445 24.08 744.085 25.36 741.525 27.92C739.125 30.32 737.925 34.56 737.925 40.64V131.36ZM711.525 42.32C711.525 28.72 714.965 18.32 721.845 11.12C728.725 3.75999 738.645 0.079999 751.605 0.079999C764.565 0.079999 774.485 3.75999 781.365 11.12C788.245 18.32 791.685 28.72 791.685 42.32V129.68C791.685 143.28 788.245 153.76 781.365 161.12C774.485 168.32 764.565 171.92 751.605 171.92C738.645 171.92 728.725 168.32 721.845 161.12C714.965 153.76 711.525 143.28 711.525 129.68V42.32ZM820.378 1.99999H901.978V26H874.378V170H847.978V26H820.378V1.99999ZM957.262 131.36C957.262 137.44 958.462 141.76 960.862 144.32C963.422 146.72 966.782 147.92 970.942 147.92C975.102 147.92 978.382 146.72 980.782 144.32C983.342 141.76 984.622 137.44 984.622 131.36V40.64C984.622 34.56 983.342 30.32 980.782 27.92C978.382 25.36 975.102 24.08 970.942 24.08C966.782 24.08 963.422 25.36 960.862 27.92C958.462 30.32 957.262 34.56 957.262 40.64V131.36ZM930.862 42.32C930.862 28.72 934.302 18.32 941.182 11.12C948.062 3.75999 957.982 0.079999 970.942 0.079999C983.902 0.079999 993.822 3.75999 1000.7 11.12C1007.58 18.32 1011.02 28.72 1011.02 42.32V129.68C1011.02 143.28 1007.58 153.76 1000.7 161.12C993.822 168.32 983.902 171.92 970.942 171.92C957.982 171.92 948.062 168.32 941.182 161.12C934.302 153.76 930.862 143.28 930.862 129.68V42.32ZM27 450H0.600001V282H70.44V306H27V450ZM125.597 411.36C125.597 417.44 126.797 421.76 129.197 424.32C131.757 426.72 135.117 427.92 139.277 427.92C143.437 427.92 146.717 426.72 149.117 424.32C151.677 421.76 152.957 417.44 152.957 411.36V320.64C152.957 314.56 151.677 310.32 149.117 307.92C146.717 305.36 143.437 304.08 139.277 304.08C135.117 304.08 131.757 305.36 129.197 307.92C126.797 310.32 125.597 314.56 125.597 320.64V411.36ZM99.1969 322.32C99.1969 308.72 102.637 298.32 109.517 291.12C116.397 283.76 126.317 280.08 139.277 280.08C152.237 280.08 162.157 283.76 169.037 291.12C175.917 298.32 179.357 308.72 179.357 322.32V409.68C179.357 423.28 175.917 433.76 169.037 441.12C162.157 448.32 152.237 451.92 139.277 451.92C126.317 451.92 116.397 448.32 109.517 441.12C102.637 433.76 99.1969 423.28 99.1969 409.68V322.32ZM208.05 282H289.65V306H262.05V450H235.65V306H208.05V282ZM344.934 411.36C344.934 417.44 346.134 421.76 348.534 424.32C351.094 426.72 354.454 427.92 358.614 427.92C362.774 427.92 366.054 426.72 368.454 424.32C371.014 421.76 372.294 417.44 372.294 411.36V320.64C372.294 314.56 371.014 310.32 368.454 307.92C366.054 305.36 362.774 304.08 358.614 304.08C354.454 304.08 351.094 305.36 348.534 307.92C346.134 310.32 344.934 314.56 344.934 320.64V411.36ZM318.534 322.32C318.534 308.72 321.974 298.32 328.854 291.12C335.734 283.76 345.654 280.08 358.614 280.08C371.574 280.08 381.494 283.76 388.374 291.12C395.254 298.32 398.694 308.72 398.694 322.32V409.68C398.694 423.28 395.254 433.76 388.374 441.12C381.494 448.32 371.574 451.92 358.614 451.92C345.654 451.92 335.734 448.32 328.854 441.12C321.974 433.76 318.534 423.28 318.534 409.68V322.32ZM474.427 282C488.187 282 498.107 285.2 504.187 291.6C510.427 298 513.547 307.68 513.547 320.64V326.64C513.547 335.28 512.187 342.4 509.467 348C506.747 353.6 502.427 357.76 496.507 360.48C503.707 363.2 508.747 367.68 511.627 373.92C514.667 380 516.187 387.52 516.187 396.48V410.16C516.187 423.12 512.827 433.04 506.107 439.92C499.387 446.64 489.387 450 476.107 450H434.587V282H474.427ZM460.987 374.4V426H476.107C480.587 426 483.947 424.8 486.187 422.4C488.587 420 489.787 415.68 489.787 409.44V394.8C489.787 386.96 488.427 381.6 485.707 378.72C483.147 375.84 478.827 374.4 472.747 374.4H460.987ZM460.987 306V350.4H471.307C476.267 350.4 480.107 349.12 482.827 346.56C485.707 344 487.147 339.36 487.147 332.64V323.28C487.147 317.2 486.027 312.8 483.787 310.08C481.707 307.36 478.347 306 473.707 306H460.987ZM575.053 411.36C575.053 417.44 576.253 421.76 578.653 424.32C581.213 426.72 584.573 427.92 588.733 427.92C592.893 427.92 596.173 426.72 598.573 424.32C601.133 421.76 602.413 417.44 602.413 411.36V320.64C602.413 314.56 601.133 310.32 598.573 307.92C596.173 305.36 592.893 304.08 588.733 304.08C584.573 304.08 581.213 305.36 578.653 307.92C576.253 310.32 575.053 314.56 575.053 320.64V411.36ZM548.653 322.32C548.653 308.72 552.093 298.32 558.973 291.12C565.853 283.76 575.773 280.08 588.733 280.08C601.693 280.08 611.613 283.76 618.493 291.12C625.373 298.32 628.813 308.72 628.813 322.32V409.68C628.813 423.28 625.373 433.76 618.493 441.12C611.613 448.32 601.693 451.92 588.733 451.92C575.773 451.92 565.853 448.32 558.973 441.12C552.093 433.76 548.653 423.28 548.653 409.68V322.32Z" fill="white"/>
</svg>
